ISO-10303-21;
HEADER;
FILE_DESCRIPTION(('Aetheris AP242 subset export'),'2;1');
FILE_NAME('aetheris_export.step','1970-01-01T00:00:00',('Aetheris'),('Aetheris'),'Aetheris.Kernel','Aetheris.Kernel','');
FILE_SCHEMA(('AP242_MANAGED_MODEL_BASED_3D_ENGINEERING_MIM_LF'));
ENDSEC;
DATA;
#1=CARTESIAN_POINT($,(0,0,0));
#2=DIRECTION($,(0,0,-1));
#3=DIRECTION($,(1,0,0));
#4=AXIS2_PLACEMENT_3D($,#1,#2,#3);
#5=PLANE($,#4);
#6=CARTESIAN_POINT($,(-0.5,-0.5,-0));
#7=VERTEX_POINT($,#6);
#8=CARTESIAN_POINT($,(0.5,-0.5,-0));
#9=VERTEX_POINT($,#8);
#10=CARTESIAN_POINT($,(-0.5,-0.5,-0));
#11=DIRECTION($,(1,0,0));
#12=VECTOR($,#11,1);
#13=LINE($,#10,#12);
#14=EDGE_CURVE($,#7,#9,#13,.T.);
#15=ORIENTED_EDGE($,$,$,#14,.T.);
#16=CARTESIAN_POINT($,(0.5,0.5,-0));
#17=VERTEX_POINT($,#16);
#18=CARTESIAN_POINT($,(0.5,-0.5,-0));
#19=DIRECTION($,(0,1,0));
#20=VECTOR($,#19,1);
#21=LINE($,#18,#20);
#22=EDGE_CURVE($,#9,#17,#21,.T.);
#23=ORIENTED_EDGE($,$,$,#22,.T.);
#24=CARTESIAN_POINT($,(-0.5,0.5,-0));
#25=VERTEX_POINT($,#24);
#26=CARTESIAN_POINT($,(0.5,0.5,-0));
#27=DIRECTION($,(-1,0,0));
#28=VECTOR($,#27,1);
#29=LINE($,#26,#28);
#30=EDGE_CURVE($,#17,#25,#29,.T.);
#31=ORIENTED_EDGE($,$,$,#30,.T.);
#32=CARTESIAN_POINT($,(-0.5,0.5,-0));
#33=DIRECTION($,(0,-1,0));
#34=VECTOR($,#33,1);
#35=LINE($,#32,#34);
#36=EDGE_CURVE($,#25,#7,#35,.T.);
#37=ORIENTED_EDGE($,$,$,#36,.T.);
#38=EDGE_LOOP($,(#15,#23,#31,#37));
#39=FACE_OUTER_BOUND('',#38,.T.);
#40=ADVANCED_FACE('',(#39),#5,.T.);
#41=CARTESIAN_POINT($,(0,0,1));
#42=DIRECTION($,(0,0,1));
#43=DIRECTION($,(1,0,0));
#44=AXIS2_PLACEMENT_3D($,#41,#42,#43);
#45=PLANE($,#44);
#46=CARTESIAN_POINT($,(-0.4,0.4,1));
#47=VERTEX_POINT($,#46);
#48=CARTESIAN_POINT($,(-0.4,-0.4,1));
#49=VERTEX_POINT($,#48);
#50=CARTESIAN_POINT($,(-0.4,0.4,1));
#51=DIRECTION($,(0,-1,0));
#52=VECTOR($,#51,1);
#53=LINE($,#50,#52);
#54=EDGE_CURVE($,#47,#49,#53,.T.);
#55=ORIENTED_EDGE($,$,$,#54,.F.);
#56=CARTESIAN_POINT($,(0.4,0.4,1));
#57=VERTEX_POINT($,#56);
#58=CARTESIAN_POINT($,(0.4,0.4,1));
#59=DIRECTION($,(-1,0,0));
#60=VECTOR($,#59,1);
#61=LINE($,#58,#60);
#62=EDGE_CURVE($,#57,#47,#61,.T.);
#63=ORIENTED_EDGE($,$,$,#62,.F.);
#64=CARTESIAN_POINT($,(0.4,-0.4,1));
#65=VERTEX_POINT($,#64);
#66=CARTESIAN_POINT($,(0.4,-0.4,1));
#67=DIRECTION($,(0,1,0));
#68=VECTOR($,#67,1);
#69=LINE($,#66,#68);
#70=EDGE_CURVE($,#65,#57,#69,.T.);
#71=ORIENTED_EDGE($,$,$,#70,.F.);
#72=CARTESIAN_POINT($,(-0.4,-0.4,1));
#73=DIRECTION($,(1,0,0));
#74=VECTOR($,#73,1);
#75=LINE($,#72,#74);
#76=EDGE_CURVE($,#49,#65,#75,.T.);
#77=ORIENTED_EDGE($,$,$,#76,.F.);
#78=EDGE_LOOP($,(#55,#63,#71,#77));
#79=FACE_OUTER_BOUND('',#78,.T.);
#80=ADVANCED_FACE('',(#79),#45,.T.);
#81=CARTESIAN_POINT($,(-0.5,-0.5,0));
#82=DIRECTION($,(0,-1,0));
#83=DIRECTION($,(1,0,0));
#84=AXIS2_PLACEMENT_3D($,#81,#82,#83);
#85=PLANE($,#84);
#86=ORIENTED_EDGE($,$,$,#14,.T.);
#87=CARTESIAN_POINT($,(0.5,-0.5,0.9));
#88=VERTEX_POINT($,#87);
#89=CARTESIAN_POINT($,(0.5,-0.5,-0));
#90=DIRECTION($,(0,0,1));
#91=VECTOR($,#90,1);
#92=LINE($,#89,#91);
#93=EDGE_CURVE($,#9,#88,#92,.T.);
#94=ORIENTED_EDGE($,$,$,#93,.T.);
#95=CARTESIAN_POINT($,(-0.5,-0.5,0.9));
#96=VERTEX_POINT($,#95);
#97=CARTESIAN_POINT($,(-0.5,-0.5,0.9));
#98=DIRECTION($,(1,0,0));
#99=VECTOR($,#98,1);
#100=LINE($,#97,#99);
#101=EDGE_CURVE($,#96,#88,#100,.T.);
#102=ORIENTED_EDGE($,$,$,#101,.F.);
#103=CARTESIAN_POINT($,(-0.5,-0.5,-0));
#104=DIRECTION($,(0,0,1));
#105=VECTOR($,#104,1);
#106=LINE($,#103,#105);
#107=EDGE_CURVE($,#7,#96,#106,.T.);
#108=ORIENTED_EDGE($,$,$,#107,.F.);
#109=EDGE_LOOP($,(#86,#94,#102,#108));
#110=FACE_OUTER_BOUND('',#109,.T.);
#111=ADVANCED_FACE('',(#110),#85,.T.);
#112=CARTESIAN_POINT($,(0.5,-0.5,0));
#113=DIRECTION($,(1,0,0));
#114=DIRECTION($,(0,1,0));
#115=AXIS2_PLACEMENT_3D($,#112,#113,#114);
#116=PLANE($,#115);
#117=ORIENTED_EDGE($,$,$,#22,.T.);
#118=CARTESIAN_POINT($,(0.5,0.5,0.9));
#119=VERTEX_POINT($,#118);
#120=CARTESIAN_POINT($,(0.5,0.5,-0));
#121=DIRECTION($,(0,0,1));
#122=VECTOR($,#121,1);
#123=LINE($,#120,#122);
#124=EDGE_CURVE($,#17,#119,#123,.T.);
#125=ORIENTED_EDGE($,$,$,#124,.T.);
#126=CARTESIAN_POINT($,(0.5,-0.5,0.9));
#127=DIRECTION($,(0,1,0));
#128=VECTOR($,#127,1);
#129=LINE($,#126,#128);
#130=EDGE_CURVE($,#88,#119,#129,.T.);
#131=ORIENTED_EDGE($,$,$,#130,.F.);
#132=ORIENTED_EDGE($,$,$,#93,.F.);
#133=EDGE_LOOP($,(#117,#125,#131,#132));
#134=FACE_OUTER_BOUND('',#133,.T.);
#135=ADVANCED_FACE('',(#134),#116,.T.);
#136=CARTESIAN_POINT($,(0.5,0.5,0));
#137=DIRECTION($,(0,1,-0));
#138=DIRECTION($,(-1,0,0));
#139=AXIS2_PLACEMENT_3D($,#136,#137,#138);
#140=PLANE($,#139);
#141=ORIENTED_EDGE($,$,$,#30,.T.);
#142=CARTESIAN_POINT($,(-0.5,0.5,0.9));
#143=VERTEX_POINT($,#142);
#144=CARTESIAN_POINT($,(-0.5,0.5,-0));
#145=DIRECTION($,(0,0,1));
#146=VECTOR($,#145,1);
#147=LINE($,#144,#146);
#148=EDGE_CURVE($,#25,#143,#147,.T.);
#149=ORIENTED_EDGE($,$,$,#148,.T.);
#150=CARTESIAN_POINT($,(0.5,0.5,0.9));
#151=DIRECTION($,(-1,0,0));
#152=VECTOR($,#151,1);
#153=LINE($,#150,#152);
#154=EDGE_CURVE($,#119,#143,#153,.T.);
#155=ORIENTED_EDGE($,$,$,#154,.F.);
#156=ORIENTED_EDGE($,$,$,#124,.F.);
#157=EDGE_LOOP($,(#141,#149,#155,#156));
#158=FACE_OUTER_BOUND('',#157,.T.);
#159=ADVANCED_FACE('',(#158),#140,.T.);
#160=CARTESIAN_POINT($,(-0.5,0.5,0));
#161=DIRECTION($,(-1,0,0));
#162=DIRECTION($,(0,-1,0));
#163=AXIS2_PLACEMENT_3D($,#160,#161,#162);
#164=PLANE($,#163);
#165=ORIENTED_EDGE($,$,$,#36,.T.);
#166=ORIENTED_EDGE($,$,$,#107,.T.);
#167=CARTESIAN_POINT($,(-0.5,0.5,0.9));
#168=DIRECTION($,(0,-1,0));
#169=VECTOR($,#168,1);
#170=LINE($,#167,#169);
#171=EDGE_CURVE($,#143,#96,#170,.T.);
#172=ORIENTED_EDGE($,$,$,#171,.F.);
#173=ORIENTED_EDGE($,$,$,#148,.F.);
#174=EDGE_LOOP($,(#165,#166,#172,#173));
#175=FACE_OUTER_BOUND('',#174,.T.);
#176=ADVANCED_FACE('',(#175),#164,.T.);
#177=CARTESIAN_POINT($,(-0.5,-0.5,0.9));
#178=DIRECTION($,(0,-0.707106781186547,0.707106781186547));
#179=DIRECTION($,(1,0,0));
#180=AXIS2_PLACEMENT_3D($,#177,#178,#179);
#181=PLANE($,#180);
#182=ORIENTED_EDGE($,$,$,#101,.T.);
#183=CARTESIAN_POINT($,(0.5,-0.5,0.9));
#184=DIRECTION($,(-0.577350269189626,0.577350269189626,0.577350269189626));
#185=VECTOR($,#184,1);
#186=LINE($,#183,#185);
#187=EDGE_CURVE($,#88,#65,#186,.T.);
#188=ORIENTED_EDGE($,$,$,#187,.T.);
#189=ORIENTED_EDGE($,$,$,#76,.F.);
#190=CARTESIAN_POINT($,(-0.5,-0.5,0.9));
#191=DIRECTION($,(0.577350269189626,0.577350269189626,0.577350269189626));
#192=VECTOR($,#191,1);
#193=LINE($,#190,#192);
#194=EDGE_CURVE($,#96,#49,#193,.T.);
#195=ORIENTED_EDGE($,$,$,#194,.F.);
#196=EDGE_LOOP($,(#182,#188,#189,#195));
#197=FACE_OUTER_BOUND('',#196,.T.);
#198=ADVANCED_FACE('',(#197),#181,.T.);
#199=CARTESIAN_POINT($,(0.5,-0.5,0.9));
#200=DIRECTION($,(0.707106781186547,-0,0.707106781186547));
#201=DIRECTION($,(0,1,0));
#202=AXIS2_PLACEMENT_3D($,#199,#200,#201);
#203=PLANE($,#202);
#204=ORIENTED_EDGE($,$,$,#130,.T.);
#205=CARTESIAN_POINT($,(0.5,0.5,0.9));
#206=DIRECTION($,(-0.577350269189626,-0.577350269189626,0.577350269189626));
#207=VECTOR($,#206,1);
#208=LINE($,#205,#207);
#209=EDGE_CURVE($,#119,#57,#208,.T.);
#210=ORIENTED_EDGE($,$,$,#209,.T.);
#211=ORIENTED_EDGE($,$,$,#70,.F.);
#212=ORIENTED_EDGE($,$,$,#187,.F.);
#213=EDGE_LOOP($,(#204,#210,#211,#212));
#214=FACE_OUTER_BOUND('',#213,.T.);
#215=ADVANCED_FACE('',(#214),#203,.T.);
#216=CARTESIAN_POINT($,(0.5,0.5,0.9));
#217=DIRECTION($,(0,0.707106781186547,0.707106781186547));
#218=DIRECTION($,(-1,0,0));
#219=AXIS2_PLACEMENT_3D($,#216,#217,#218);
#220=PLANE($,#219);
#221=ORIENTED_EDGE($,$,$,#154,.T.);
#222=CARTESIAN_POINT($,(-0.5,0.5,0.9));
#223=DIRECTION($,(0.577350269189626,-0.577350269189626,0.577350269189626));
#224=VECTOR($,#223,1);
#225=LINE($,#222,#224);
#226=EDGE_CURVE($,#143,#47,#225,.T.);
#227=ORIENTED_EDGE($,$,$,#226,.T.);
#228=ORIENTED_EDGE($,$,$,#62,.F.);
#229=ORIENTED_EDGE($,$,$,#209,.F.);
#230=EDGE_LOOP($,(#221,#227,#228,#229));
#231=FACE_OUTER_BOUND('',#230,.T.);
#232=ADVANCED_FACE('',(#231),#220,.T.);
#233=CARTESIAN_POINT($,(-0.5,0.5,0.9));
#234=DIRECTION($,(-0.707106781186547,0,0.707106781186547));
#235=DIRECTION($,(0,-1,0));
#236=AXIS2_PLACEMENT_3D($,#233,#234,#235);
#237=PLANE($,#236);
#238=ORIENTED_EDGE($,$,$,#171,.T.);
#239=ORIENTED_EDGE($,$,$,#194,.T.);
#240=ORIENTED_EDGE($,$,$,#54,.F.);
#241=ORIENTED_EDGE($,$,$,#226,.F.);
#242=EDGE_LOOP($,(#238,#239,#240,#241));
#243=FACE_OUTER_BOUND('',#242,.T.);
#244=ADVANCED_FACE('',(#243),#237,.T.);
#245=CLOSED_SHELL($,(#40,#80,#111,#135,#159,#176,#198,#215,#232,#244));
#246=MANIFOLD_SOLID_BREP('ParserRouteWitness',#245);
#247=APPLICATION_CONTEXT('mechanical design');
#248=PRODUCT_CONTEXT('',#247,'mechanical');
#249=PRODUCT('AETHERIS','ParserRouteWitness','',(#248));
#250=PRODUCT_DEFINITION_FORMATION('','',#249);
#251=PRODUCT_DEFINITION_CONTEXT('design',#247,'design');
#252=PRODUCT_DEFINITION('','',#250,#251);
#253=PRODUCT_DEFINITION_SHAPE('','',#252);
#254=(LENGTH_UNIT()NAMED_UNIT(*)SI_UNIT(.MILLI.,.METRE.));
#255=(NAMED_UNIT(*)PLANE_ANGLE_UNIT()SI_UNIT($,.RADIAN.));
#256=(NAMED_UNIT(*)SI_UNIT($,.STERADIAN.)SOLID_ANGLE_UNIT());
#257=(GEOMETRIC_REPRESENTATION_CONTEXT(3)GLOBAL_UNIT_ASSIGNED_CONTEXT((#254,#255,#256))REPRESENTATION_CONTEXT('3','3D'));
#258=SHAPE_REPRESENTATION('ParserRouteWitness',(#246),#257);
#259=SHAPE_DEFINITION_REPRESENTATION(#253,#258);
ENDSEC;
END-ISO-10303-21;
