ISO-10303-21;
HEADER;
FILE_DESCRIPTION(('Aetheris AP242 subset export'),'2;1');
FILE_NAME('aetheris_export.step','1970-01-01T00:00:00',('Aetheris'),('Aetheris'),'Aetheris.Kernel','Aetheris.Kernel','');
FILE_SCHEMA(('AP242_MANAGED_MODEL_BASED_3D_ENGINEERING_MIM_LF'));
ENDSEC;
DATA;
#1=CARTESIAN_POINT($,(26,-1,0.0818131939618));
#2=CARTESIAN_POINT($,(26,-0.875,0.0818131939618));
#3=CARTESIAN_POINT($,(26,-0.75,0.0818131939618));
#4=CARTESIAN_POINT($,(26,-0.625,0.0818131939618));
#5=CARTESIAN_POINT($,(26,-0.5,0.0818131939618));
#6=CARTESIAN_POINT($,(26,-0.375,0.0818131939618));
#7=CARTESIAN_POINT($,(26,-0.25,0.0818131939618));
#8=CARTESIAN_POINT($,(26,-0.125,0.0818131939618));
#9=CARTESIAN_POINT($,(26,0,0.0818131939618));
#10=CARTESIAN_POINT($,(26,0.125,0.0818131939618));
#11=CARTESIAN_POINT($,(26,0.25,0.0818131939618));
#12=CARTESIAN_POINT($,(26,0.375,0.0818131939618));
#13=CARTESIAN_POINT($,(26,0.5,0.0818131939618));
#14=CARTESIAN_POINT($,(26,0.625,0.0818131939618));
#15=CARTESIAN_POINT($,(26,0.75,0.0818131939618));
#16=CARTESIAN_POINT($,(26,0.875,0.0818131939618));
#17=CARTESIAN_POINT($,(26,1,0.0818131939618));
#18=CARTESIAN_POINT($,(26.6875,-1,0.063598015601735));
#19=CARTESIAN_POINT($,(26.6875,-0.875,0.063598015601735));
#20=CARTESIAN_POINT($,(26.6875,-0.75,0.063598015601735));
#21=CARTESIAN_POINT($,(26.6875,-0.625,0.063598015601735));
#22=CARTESIAN_POINT($,(26.6875,-0.5,0.063598015601735));
#23=CARTESIAN_POINT($,(26.6875,-0.375,0.063598015601735));
#24=CARTESIAN_POINT($,(26.6875,-0.25,0.063598015601735));
#25=CARTESIAN_POINT($,(26.6875,-0.125,0.063598015601735));
#26=CARTESIAN_POINT($,(26.6875,0,0.063598015601735));
#27=CARTESIAN_POINT($,(26.6875,0.125,0.063598015601735));
#28=CARTESIAN_POINT($,(26.6875,0.25,0.063598015601735));
#29=CARTESIAN_POINT($,(26.6875,0.375,0.063598015601735));
#30=CARTESIAN_POINT($,(26.6875,0.5,0.063598015601735));
#31=CARTESIAN_POINT($,(26.6875,0.625,0.063598015601735));
#32=CARTESIAN_POINT($,(26.6875,0.75,0.063598015601735));
#33=CARTESIAN_POINT($,(26.6875,0.875,0.063598015601735));
#34=CARTESIAN_POINT($,(26.6875,1,0.063598015601735));
#35=CARTESIAN_POINT($,(27.375,-1,0.047351636745937));
#36=CARTESIAN_POINT($,(27.375,-0.875,0.047351636745937));
#37=CARTESIAN_POINT($,(27.375,-0.75,0.047351636745937));
#38=CARTESIAN_POINT($,(27.375,-0.625,0.047351636745937));
#39=CARTESIAN_POINT($,(27.375,-0.5,0.047351636745937));
#40=CARTESIAN_POINT($,(27.375,-0.375,0.047351636745937));
#41=CARTESIAN_POINT($,(27.375,-0.25,0.047351636745937));
#42=CARTESIAN_POINT($,(27.375,-0.125,0.047351636745937));
#43=CARTESIAN_POINT($,(27.375,0,0.047351636745937));
#44=CARTESIAN_POINT($,(27.375,0.125,0.047351636745937));
#45=CARTESIAN_POINT($,(27.375,0.25,0.047351636745937));
#46=CARTESIAN_POINT($,(27.375,0.375,0.047351636745937));
#47=CARTESIAN_POINT($,(27.375,0.5,0.047351636745937));
#48=CARTESIAN_POINT($,(27.375,0.625,0.047351636745937));
#49=CARTESIAN_POINT($,(27.375,0.75,0.047351636745937));
#50=CARTESIAN_POINT($,(27.375,0.875,0.047351636745937));
#51=CARTESIAN_POINT($,(27.375,1,0.047351636745937));
#52=CARTESIAN_POINT($,(28.0625,-1,0.03323124452522));
#53=CARTESIAN_POINT($,(28.0625,-0.875,0.03323124452522));
#54=CARTESIAN_POINT($,(28.0625,-0.75,0.03323124452522));
#55=CARTESIAN_POINT($,(28.0625,-0.625,0.03323124452522));
#56=CARTESIAN_POINT($,(28.0625,-0.5,0.03323124452522));
#57=CARTESIAN_POINT($,(28.0625,-0.375,0.03323124452522));
#58=CARTESIAN_POINT($,(28.0625,-0.25,0.03323124452522));
#59=CARTESIAN_POINT($,(28.0625,-0.125,0.03323124452522));
#60=CARTESIAN_POINT($,(28.0625,0,0.03323124452522));
#61=CARTESIAN_POINT($,(28.0625,0.125,0.03323124452522));
#62=CARTESIAN_POINT($,(28.0625,0.25,0.03323124452522));
#63=CARTESIAN_POINT($,(28.0625,0.375,0.03323124452522));
#64=CARTESIAN_POINT($,(28.0625,0.5,0.03323124452522));
#65=CARTESIAN_POINT($,(28.0625,0.625,0.03323124452522));
#66=CARTESIAN_POINT($,(28.0625,0.75,0.03323124452522));
#67=CARTESIAN_POINT($,(28.0625,0.875,0.03323124452522));
#68=CARTESIAN_POINT($,(28.0625,1,0.03323124452522));
#69=CARTESIAN_POINT($,(28.75,-1,0.021394250160603));
#70=CARTESIAN_POINT($,(28.75,-0.875,0.021394250160603));
#71=CARTESIAN_POINT($,(28.75,-0.75,0.021394250160603));
#72=CARTESIAN_POINT($,(28.75,-0.625,0.021394250160603));
#73=CARTESIAN_POINT($,(28.75,-0.5,0.021394250160603));
#74=CARTESIAN_POINT($,(28.75,-0.375,0.021394250160603));
#75=CARTESIAN_POINT($,(28.75,-0.25,0.021394250160603));
#76=CARTESIAN_POINT($,(28.75,-0.125,0.021394250160603));
#77=CARTESIAN_POINT($,(28.75,0,0.021394250160603));
#78=CARTESIAN_POINT($,(28.75,0.125,0.021394250160603));
#79=CARTESIAN_POINT($,(28.75,0.25,0.021394250160603));
#80=CARTESIAN_POINT($,(28.75,0.375,0.021394250160603));
#81=CARTESIAN_POINT($,(28.75,0.5,0.021394250160603));
#82=CARTESIAN_POINT($,(28.75,0.625,0.021394250160603));
#83=CARTESIAN_POINT($,(28.75,0.75,0.021394250160603));
#84=CARTESIAN_POINT($,(28.75,0.875,0.021394250160603));
#85=CARTESIAN_POINT($,(28.75,1,0.021394250160603));
#86=CARTESIAN_POINT($,(29.4375,-1,0.011998048438758));
#87=CARTESIAN_POINT($,(29.4375,-0.875,0.011998048438758));
#88=CARTESIAN_POINT($,(29.4375,-0.75,0.011998048438758));
#89=CARTESIAN_POINT($,(29.4375,-0.625,0.011998048438758));
#90=CARTESIAN_POINT($,(29.4375,-0.5,0.011998048438758));
#91=CARTESIAN_POINT($,(29.4375,-0.375,0.011998048438758));
#92=CARTESIAN_POINT($,(29.4375,-0.25,0.011998048438758));
#93=CARTESIAN_POINT($,(29.4375,-0.125,0.011998048438758));
#94=CARTESIAN_POINT($,(29.4375,0,0.011998048438758));
#95=CARTESIAN_POINT($,(29.4375,0.125,0.011998048438758));
#96=CARTESIAN_POINT($,(29.4375,0.25,0.011998048438758));
#97=CARTESIAN_POINT($,(29.4375,0.375,0.011998048438758));
#98=CARTESIAN_POINT($,(29.4375,0.5,0.011998048438758));
#99=CARTESIAN_POINT($,(29.4375,0.625,0.011998048438758));
#100=CARTESIAN_POINT($,(29.4375,0.75,0.011998048438758));
#101=CARTESIAN_POINT($,(29.4375,0.875,0.011998048438758));
#102=CARTESIAN_POINT($,(29.4375,1,0.011998048438758));
#103=CARTESIAN_POINT($,(30.125,-1,0.005199776302891));
#104=CARTESIAN_POINT($,(30.125,-0.875,0.005199776302891));
#105=CARTESIAN_POINT($,(30.125,-0.75,0.005199776302891));
#106=CARTESIAN_POINT($,(30.125,-0.625,0.005199776302891));
#107=CARTESIAN_POINT($,(30.125,-0.5,0.005199776302891));
#108=CARTESIAN_POINT($,(30.125,-0.375,0.005199776302891));
#109=CARTESIAN_POINT($,(30.125,-0.25,0.005199776302891));
#110=CARTESIAN_POINT($,(30.125,-0.125,0.005199776302891));
#111=CARTESIAN_POINT($,(30.125,0,0.005199776302891));
#112=CARTESIAN_POINT($,(30.125,0.125,0.005199776302891));
#113=CARTESIAN_POINT($,(30.125,0.25,0.005199776302891));
#114=CARTESIAN_POINT($,(30.125,0.375,0.005199776302891));
#115=CARTESIAN_POINT($,(30.125,0.5,0.005199776302891));
#116=CARTESIAN_POINT($,(30.125,0.625,0.005199776302891));
#117=CARTESIAN_POINT($,(30.125,0.75,0.005199776302891));
#118=CARTESIAN_POINT($,(30.125,0.875,0.005199776302891));
#119=CARTESIAN_POINT($,(30.125,1,0.005199776302891));
#120=CARTESIAN_POINT($,(30.8125,-1,0.001156070874553));
#121=CARTESIAN_POINT($,(30.8125,-0.875,0.001156070874553));
#122=CARTESIAN_POINT($,(30.8125,-0.75,0.001156070874553));
#123=CARTESIAN_POINT($,(30.8125,-0.625,0.001156070874553));
#124=CARTESIAN_POINT($,(30.8125,-0.5,0.001156070874553));
#125=CARTESIAN_POINT($,(30.8125,-0.375,0.001156070874553));
#126=CARTESIAN_POINT($,(30.8125,-0.25,0.001156070874553));
#127=CARTESIAN_POINT($,(30.8125,-0.125,0.001156070874553));
#128=CARTESIAN_POINT($,(30.8125,0,0.001156070874553));
#129=CARTESIAN_POINT($,(30.8125,0.125,0.001156070874553));
#130=CARTESIAN_POINT($,(30.8125,0.25,0.001156070874553));
#131=CARTESIAN_POINT($,(30.8125,0.375,0.001156070874553));
#132=CARTESIAN_POINT($,(30.8125,0.5,0.001156070874553));
#133=CARTESIAN_POINT($,(30.8125,0.625,0.001156070874553));
#134=CARTESIAN_POINT($,(30.8125,0.75,0.001156070874553));
#135=CARTESIAN_POINT($,(30.8125,0.875,0.001156070874553));
#136=CARTESIAN_POINT($,(30.8125,1,0.001156070874553));
#137=CARTESIAN_POINT($,(31.5,-1,0.000022827222994));
#138=CARTESIAN_POINT($,(31.5,-0.875,0.000022827222994));
#139=CARTESIAN_POINT($,(31.5,-0.75,0.000022827222994));
#140=CARTESIAN_POINT($,(31.5,-0.625,0.000022827222994));
#141=CARTESIAN_POINT($,(31.5,-0.5,0.000022827222994));
#142=CARTESIAN_POINT($,(31.5,-0.375,0.000022827222994));
#143=CARTESIAN_POINT($,(31.5,-0.25,0.000022827222994));
#144=CARTESIAN_POINT($,(31.5,-0.125,0.000022827222994));
#145=CARTESIAN_POINT($,(31.5,0,0.000022827222994));
#146=CARTESIAN_POINT($,(31.5,0.125,0.000022827222994));
#147=CARTESIAN_POINT($,(31.5,0.25,0.000022827222994));
#148=CARTESIAN_POINT($,(31.5,0.375,0.000022827222994));
#149=CARTESIAN_POINT($,(31.5,0.5,0.000022827222994));
#150=CARTESIAN_POINT($,(31.5,0.625,0.000022827222994));
#151=CARTESIAN_POINT($,(31.5,0.75,0.000022827222994));
#152=CARTESIAN_POINT($,(31.5,0.875,0.000022827222994));
#153=CARTESIAN_POINT($,(31.5,1,0.000022827222994));
#154=CARTESIAN_POINT($,(32.1875,-1,0.001954956199399));
#155=CARTESIAN_POINT($,(32.1875,-0.875,0.001954956199399));
#156=CARTESIAN_POINT($,(32.1875,-0.75,0.001954956199399));
#157=CARTESIAN_POINT($,(32.1875,-0.625,0.001954956199399));
#158=CARTESIAN_POINT($,(32.1875,-0.5,0.001954956199399));
#159=CARTESIAN_POINT($,(32.1875,-0.375,0.001954956199399));
#160=CARTESIAN_POINT($,(32.1875,-0.25,0.001954956199399));
#161=CARTESIAN_POINT($,(32.1875,-0.125,0.001954956199399));
#162=CARTESIAN_POINT($,(32.1875,0,0.001954956199399));
#163=CARTESIAN_POINT($,(32.1875,0.125,0.001954956199399));
#164=CARTESIAN_POINT($,(32.1875,0.25,0.001954956199399));
#165=CARTESIAN_POINT($,(32.1875,0.375,0.001954956199399));
#166=CARTESIAN_POINT($,(32.1875,0.5,0.001954956199399));
#167=CARTESIAN_POINT($,(32.1875,0.625,0.001954956199399));
#168=CARTESIAN_POINT($,(32.1875,0.75,0.001954956199399));
#169=CARTESIAN_POINT($,(32.1875,0.875,0.001954956199399));
#170=CARTESIAN_POINT($,(32.1875,1,0.001954956199399));
#171=CARTESIAN_POINT($,(32.875,-1,0.007106142653669));
#172=CARTESIAN_POINT($,(32.875,-0.875,0.007106142653669));
#173=CARTESIAN_POINT($,(32.875,-0.75,0.007106142653669));
#174=CARTESIAN_POINT($,(32.875,-0.625,0.007106142653669));
#175=CARTESIAN_POINT($,(32.875,-0.5,0.007106142653669));
#176=CARTESIAN_POINT($,(32.875,-0.375,0.007106142653669));
#177=CARTESIAN_POINT($,(32.875,-0.25,0.007106142653669));
#178=CARTESIAN_POINT($,(32.875,-0.125,0.007106142653669));
#179=CARTESIAN_POINT($,(32.875,0,0.007106142653669));
#180=CARTESIAN_POINT($,(32.875,0.125,0.007106142653669));
#181=CARTESIAN_POINT($,(32.875,0.25,0.007106142653669));
#182=CARTESIAN_POINT($,(32.875,0.375,0.007106142653669));
#183=CARTESIAN_POINT($,(32.875,0.5,0.007106142653669));
#184=CARTESIAN_POINT($,(32.875,0.625,0.007106142653669));
#185=CARTESIAN_POINT($,(32.875,0.75,0.007106142653669));
#186=CARTESIAN_POINT($,(32.875,0.875,0.007106142653669));
#187=CARTESIAN_POINT($,(32.875,1,0.007106142653669));
#188=CARTESIAN_POINT($,(33.5625,-1,0.015628604351237));
#189=CARTESIAN_POINT($,(33.5625,-0.875,0.015628604351237));
#190=CARTESIAN_POINT($,(33.5625,-0.75,0.015628604351237));
#191=CARTESIAN_POINT($,(33.5625,-0.625,0.015628604351237));
#192=CARTESIAN_POINT($,(33.5625,-0.5,0.015628604351237));
#193=CARTESIAN_POINT($,(33.5625,-0.375,0.015628604351237));
#194=CARTESIAN_POINT($,(33.5625,-0.25,0.015628604351237));
#195=CARTESIAN_POINT($,(33.5625,-0.125,0.015628604351237));
#196=CARTESIAN_POINT($,(33.5625,0,0.015628604351237));
#197=CARTESIAN_POINT($,(33.5625,0.125,0.015628604351237));
#198=CARTESIAN_POINT($,(33.5625,0.25,0.015628604351237));
#199=CARTESIAN_POINT($,(33.5625,0.375,0.015628604351237));
#200=CARTESIAN_POINT($,(33.5625,0.5,0.015628604351237));
#201=CARTESIAN_POINT($,(33.5625,0.625,0.015628604351237));
#202=CARTESIAN_POINT($,(33.5625,0.75,0.015628604351237));
#203=CARTESIAN_POINT($,(33.5625,0.875,0.015628604351237));
#204=CARTESIAN_POINT($,(33.5625,1,0.015628604351237));
#205=CARTESIAN_POINT($,(34.25,-1,0.027672851906991));
#206=CARTESIAN_POINT($,(34.25,-0.875,0.027672851906991));
#207=CARTESIAN_POINT($,(34.25,-0.75,0.027672851906991));
#208=CARTESIAN_POINT($,(34.25,-0.625,0.027672851906991));
#209=CARTESIAN_POINT($,(34.25,-0.5,0.027672851906991));
#210=CARTESIAN_POINT($,(34.25,-0.375,0.027672851906991));
#211=CARTESIAN_POINT($,(34.25,-0.25,0.027672851906991));
#212=CARTESIAN_POINT($,(34.25,-0.125,0.027672851906991));
#213=CARTESIAN_POINT($,(34.25,0,0.027672851906991));
#214=CARTESIAN_POINT($,(34.25,0.125,0.027672851906991));
#215=CARTESIAN_POINT($,(34.25,0.25,0.027672851906991));
#216=CARTESIAN_POINT($,(34.25,0.375,0.027672851906991));
#217=CARTESIAN_POINT($,(34.25,0.5,0.027672851906991));
#218=CARTESIAN_POINT($,(34.25,0.625,0.027672851906991));
#219=CARTESIAN_POINT($,(34.25,0.75,0.027672851906991));
#220=CARTESIAN_POINT($,(34.25,0.875,0.027672851906991));
#221=CARTESIAN_POINT($,(34.25,1,0.027672851906991));
#222=CARTESIAN_POINT($,(34.9375,-1,0.043387450052483));
#223=CARTESIAN_POINT($,(34.9375,-0.875,0.043387450052483));
#224=CARTESIAN_POINT($,(34.9375,-0.75,0.043387450052483));
#225=CARTESIAN_POINT($,(34.9375,-0.625,0.043387450052483));
#226=CARTESIAN_POINT($,(34.9375,-0.5,0.043387450052483));
#227=CARTESIAN_POINT($,(34.9375,-0.375,0.043387450052483));
#228=CARTESIAN_POINT($,(34.9375,-0.25,0.043387450052483));
#229=CARTESIAN_POINT($,(34.9375,-0.125,0.043387450052483));
#230=CARTESIAN_POINT($,(34.9375,0,0.043387450052483));
#231=CARTESIAN_POINT($,(34.9375,0.125,0.043387450052483));
#232=CARTESIAN_POINT($,(34.9375,0.25,0.043387450052483));
#233=CARTESIAN_POINT($,(34.9375,0.375,0.043387450052483));
#234=CARTESIAN_POINT($,(34.9375,0.5,0.043387450052483));
#235=CARTESIAN_POINT($,(34.9375,0.625,0.043387450052483));
#236=CARTESIAN_POINT($,(34.9375,0.75,0.043387450052483));
#237=CARTESIAN_POINT($,(34.9375,0.875,0.043387450052483));
#238=CARTESIAN_POINT($,(34.9375,1,0.043387450052483));
#239=CARTESIAN_POINT($,(35.625,-1,0.062918780551317));
#240=CARTESIAN_POINT($,(35.625,-0.875,0.062918780551317));
#241=CARTESIAN_POINT($,(35.625,-0.75,0.062918780551317));
#242=CARTESIAN_POINT($,(35.625,-0.625,0.062918780551317));
#243=CARTESIAN_POINT($,(35.625,-0.5,0.062918780551317));
#244=CARTESIAN_POINT($,(35.625,-0.375,0.062918780551317));
#245=CARTESIAN_POINT($,(35.625,-0.25,0.062918780551317));
#246=CARTESIAN_POINT($,(35.625,-0.125,0.062918780551317));
#247=CARTESIAN_POINT($,(35.625,0,0.062918780551317));
#248=CARTESIAN_POINT($,(35.625,0.125,0.062918780551317));
#249=CARTESIAN_POINT($,(35.625,0.25,0.062918780551317));
#250=CARTESIAN_POINT($,(35.625,0.375,0.062918780551317));
#251=CARTESIAN_POINT($,(35.625,0.5,0.062918780551317));
#252=CARTESIAN_POINT($,(35.625,0.625,0.062918780551317));
#253=CARTESIAN_POINT($,(35.625,0.75,0.062918780551317));
#254=CARTESIAN_POINT($,(35.625,0.875,0.062918780551317));
#255=CARTESIAN_POINT($,(35.625,1,0.062918780551317));
#256=CARTESIAN_POINT($,(36.3125,-1,0.086410807075953));
#257=CARTESIAN_POINT($,(36.3125,-0.875,0.086410807075953));
#258=CARTESIAN_POINT($,(36.3125,-0.75,0.086410807075953));
#259=CARTESIAN_POINT($,(36.3125,-0.625,0.086410807075953));
#260=CARTESIAN_POINT($,(36.3125,-0.5,0.086410807075953));
#261=CARTESIAN_POINT($,(36.3125,-0.375,0.086410807075953));
#262=CARTESIAN_POINT($,(36.3125,-0.25,0.086410807075953));
#263=CARTESIAN_POINT($,(36.3125,-0.125,0.086410807075953));
#264=CARTESIAN_POINT($,(36.3125,0,0.086410807075953));
#265=CARTESIAN_POINT($,(36.3125,0.125,0.086410807075953));
#266=CARTESIAN_POINT($,(36.3125,0.25,0.086410807075953));
#267=CARTESIAN_POINT($,(36.3125,0.375,0.086410807075953));
#268=CARTESIAN_POINT($,(36.3125,0.5,0.086410807075953));
#269=CARTESIAN_POINT($,(36.3125,0.625,0.086410807075953));
#270=CARTESIAN_POINT($,(36.3125,0.75,0.086410807075953));
#271=CARTESIAN_POINT($,(36.3125,0.875,0.086410807075953));
#272=CARTESIAN_POINT($,(36.3125,1,0.086410807075953));
#273=CARTESIAN_POINT($,(37,-1,0.114004842357012));
#274=CARTESIAN_POINT($,(37,-0.875,0.114004842357012));
#275=CARTESIAN_POINT($,(37,-0.75,0.114004842357012));
#276=CARTESIAN_POINT($,(37,-0.625,0.114004842357012));
#277=CARTESIAN_POINT($,(37,-0.5,0.114004842357012));
#278=CARTESIAN_POINT($,(37,-0.375,0.114004842357012));
#279=CARTESIAN_POINT($,(37,-0.25,0.114004842357012));
#280=CARTESIAN_POINT($,(37,-0.125,0.114004842357012));
#281=CARTESIAN_POINT($,(37,0,0.114004842357012));
#282=CARTESIAN_POINT($,(37,0.125,0.114004842357012));
#283=CARTESIAN_POINT($,(37,0.25,0.114004842357012));
#284=CARTESIAN_POINT($,(37,0.375,0.114004842357012));
#285=CARTESIAN_POINT($,(37,0.5,0.114004842357012));
#286=CARTESIAN_POINT($,(37,0.625,0.114004842357012));
#287=CARTESIAN_POINT($,(37,0.75,0.114004842357012));
#288=CARTESIAN_POINT($,(37,0.875,0.114004842357012));
#289=CARTESIAN_POINT($,(37,1,0.114004842357012));
#290=B_SPLINE_SURFACE_WITH_KNOTS($,1,1,((#1,#2,#3,#4,#5,#6,#7,#8,#9,#10,#11,#12,#13,#14,#15,#16,#17),(#18,#19,#20,#21,#22,#23,#24,#25,#26,#27,#28,#29,#30,#31,#32,#33,#34),(#35,#36,#37,#38,#39,#40,#41,#42,#43,#44,#45,#46,#47,#48,#49,#50,#51),(#52,#53,#54,#55,#56,#57,#58,#59,#60,#61,#62,#63,#64,#65,#66,#67,#68),(#69,#70,#71,#72,#73,#74,#75,#76,#77,#78,#79,#80,#81,#82,#83,#84,#85),(#86,#87,#88,#89,#90,#91,#92,#93,#94,#95,#96,#97,#98,#99,#100,#101,#102),(#103,#104,#105,#106,#107,#108,#109,#110,#111,#112,#113,#114,#115,#116,#117,#118,#119),(#120,#121,#122,#123,#124,#125,#126,#127,#128,#129,#130,#131,#132,#133,#134,#135,#136),(#137,#138,#139,#140,#141,#142,#143,#144,#145,#146,#147,#148,#149,#150,#151,#152,#153),(#154,#155,#156,#157,#158,#159,#160,#161,#162,#163,#164,#165,#166,#167,#168,#169,#170),(#171,#172,#173,#174,#175,#176,#177,#178,#179,#180,#181,#182,#183,#184,#185,#186,#187),(#188,#189,#190,#191,#192,#193,#194,#195,#196,#197,#198,#199,#200,#201,#202,#203,#204),(#205,#206,#207,#208,#209,#210,#211,#212,#213,#214,#215,#216,#217,#218,#219,#220,#221),(#222,#223,#224,#225,#226,#227,#228,#229,#230,#231,#232,#233,#234,#235,#236,#237,#238),(#239,#240,#241,#242,#243,#244,#245,#246,#247,#248,#249,#250,#251,#252,#253,#254,#255),(#256,#257,#258,#259,#260,#261,#262,#263,#264,#265,#266,#267,#268,#269,#270,#271,#272),(#273,#274,#275,#276,#277,#278,#279,#280,#281,#282,#283,#284,#285,#286,#287,#288,#289)),.SURFACE_OF_LINEAR_EXTRUSION.,.F.,.F.,.F.,(2,1,1,1,1,1,1,1,1,1,1,1,1,1,1,1,2),(2,1,1,1,1,1,1,1,1,1,1,1,1,1,1,1,2),(0,0.0625,0.125,0.1875,0.25,0.3125,0.375,0.4375,0.5,0.5625,0.625,0.6875,0.75,0.8125,0.875,0.9375,1),(0,0.0625,0.125,0.1875,0.25,0.3125,0.375,0.4375,0.5,0.5625,0.625,0.6875,0.75,0.8125,0.875,0.9375,1),.UNSPECIFIED.);
#291=CARTESIAN_POINT($,(26,-1,0.0818131939618));
#292=VERTEX_POINT($,#291);
#293=CARTESIAN_POINT($,(37,-1,0.114004842357012));
#294=VERTEX_POINT($,#293);
#295=CARTESIAN_POINT($,(26,-1,0.0818131939618));
#296=CARTESIAN_POINT($,(26.6875,-1,0.063598015601735));
#297=CARTESIAN_POINT($,(27.375,-1,0.047351636745937));
#298=CARTESIAN_POINT($,(28.0625,-1,0.03323124452522));
#299=CARTESIAN_POINT($,(28.75,-1,0.021394250160603));
#300=CARTESIAN_POINT($,(29.4375,-1,0.011998048438758));
#301=CARTESIAN_POINT($,(30.125,-1,0.005199776302891));
#302=CARTESIAN_POINT($,(30.8125,-1,0.001156070874553));
#303=CARTESIAN_POINT($,(31.5,-1,0.000022827222994));
#304=CARTESIAN_POINT($,(32.1875,-1,0.001954956199399));
#305=CARTESIAN_POINT($,(32.875,-1,0.007106142653669));
#306=CARTESIAN_POINT($,(33.5625,-1,0.015628604351237));
#307=CARTESIAN_POINT($,(34.25,-1,0.027672851906991));
#308=CARTESIAN_POINT($,(34.9375,-1,0.043387450052483));
#309=CARTESIAN_POINT($,(35.625,-1,0.062918780551317));
#310=CARTESIAN_POINT($,(36.3125,-1,0.086410807075953));
#311=CARTESIAN_POINT($,(37,-1,0.114004842357012));
#312=B_SPLINE_CURVE_WITH_KNOTS($,1,(#295,#296,#297,#298,#299,#300,#301,#302,#303,#304,#305,#306,#307,#308,#309,#310,#311),.UNSPECIFIED.,.F.,.F.,(2,1,1,1,1,1,1,1,1,1,1,1,1,1,1,1,2),(0,0.0625,0.125,0.1875,0.25,0.3125,0.375,0.4375,0.5,0.5625,0.625,0.6875,0.75,0.8125,0.875,0.9375,1),.UNSPECIFIED.);
#313=EDGE_CURVE($,#292,#294,#312,.T.);
#314=ORIENTED_EDGE($,$,$,#313,.T.);
#315=CARTESIAN_POINT($,(37,1,0.114004842357012));
#316=VERTEX_POINT($,#315);
#317=CARTESIAN_POINT($,(37,-1,0.114004842357012));
#318=CARTESIAN_POINT($,(37,-0.875,0.114004842357012));
#319=CARTESIAN_POINT($,(37,-0.75,0.114004842357012));
#320=CARTESIAN_POINT($,(37,-0.625,0.114004842357012));
#321=CARTESIAN_POINT($,(37,-0.5,0.114004842357012));
#322=CARTESIAN_POINT($,(37,-0.375,0.114004842357012));
#323=CARTESIAN_POINT($,(37,-0.25,0.114004842357012));
#324=CARTESIAN_POINT($,(37,-0.125,0.114004842357012));
#325=CARTESIAN_POINT($,(37,0,0.114004842357012));
#326=CARTESIAN_POINT($,(37,0.125,0.114004842357012));
#327=CARTESIAN_POINT($,(37,0.25,0.114004842357012));
#328=CARTESIAN_POINT($,(37,0.375,0.114004842357012));
#329=CARTESIAN_POINT($,(37,0.5,0.114004842357012));
#330=CARTESIAN_POINT($,(37,0.625,0.114004842357012));
#331=CARTESIAN_POINT($,(37,0.75,0.114004842357012));
#332=CARTESIAN_POINT($,(37,0.875,0.114004842357012));
#333=CARTESIAN_POINT($,(37,1,0.114004842357012));
#334=B_SPLINE_CURVE_WITH_KNOTS($,1,(#317,#318,#319,#320,#321,#322,#323,#324,#325,#326,#327,#328,#329,#330,#331,#332,#333),.UNSPECIFIED.,.F.,.F.,(2,1,1,1,1,1,1,1,1,1,1,1,1,1,1,1,2),(0,0.0625,0.125,0.1875,0.25,0.3125,0.375,0.4375,0.5,0.5625,0.625,0.6875,0.75,0.8125,0.875,0.9375,1),.UNSPECIFIED.);
#335=EDGE_CURVE($,#294,#316,#334,.T.);
#336=ORIENTED_EDGE($,$,$,#335,.T.);
#337=CARTESIAN_POINT($,(26,1,0.0818131939618));
#338=VERTEX_POINT($,#337);
#339=CARTESIAN_POINT($,(37,1,0.114004842357012));
#340=CARTESIAN_POINT($,(36.3125,1,0.086410807075953));
#341=CARTESIAN_POINT($,(35.625,1,0.062918780551317));
#342=CARTESIAN_POINT($,(34.9375,1,0.043387450052483));
#343=CARTESIAN_POINT($,(34.25,1,0.027672851906991));
#344=CARTESIAN_POINT($,(33.5625,1,0.015628604351237));
#345=CARTESIAN_POINT($,(32.875,1,0.007106142653669));
#346=CARTESIAN_POINT($,(32.1875,1,0.001954956199399));
#347=CARTESIAN_POINT($,(31.5,1,0.000022827222994));
#348=CARTESIAN_POINT($,(30.8125,1,0.001156070874553));
#349=CARTESIAN_POINT($,(30.125,1,0.005199776302891));
#350=CARTESIAN_POINT($,(29.4375,1,0.011998048438758));
#351=CARTESIAN_POINT($,(28.75,1,0.021394250160603));
#352=CARTESIAN_POINT($,(28.0625,1,0.03323124452522));
#353=CARTESIAN_POINT($,(27.375,1,0.047351636745937));
#354=CARTESIAN_POINT($,(26.6875,1,0.063598015601735));
#355=CARTESIAN_POINT($,(26,1,0.0818131939618));
#356=B_SPLINE_CURVE_WITH_KNOTS($,1,(#339,#340,#341,#342,#343,#344,#345,#346,#347,#348,#349,#350,#351,#352,#353,#354,#355),.UNSPECIFIED.,.F.,.F.,(2,1,1,1,1,1,1,1,1,1,1,1,1,1,1,1,2),(0,0.0625,0.125,0.1875,0.25,0.3125,0.375,0.4375,0.5,0.5625,0.625,0.6875,0.75,0.8125,0.875,0.9375,1),.UNSPECIFIED.);
#357=EDGE_CURVE($,#316,#338,#356,.T.);
#358=ORIENTED_EDGE($,$,$,#357,.T.);
#359=CARTESIAN_POINT($,(26,1,0.0818131939618));
#360=CARTESIAN_POINT($,(26,0.875,0.0818131939618));
#361=CARTESIAN_POINT($,(26,0.75,0.0818131939618));
#362=CARTESIAN_POINT($,(26,0.625,0.0818131939618));
#363=CARTESIAN_POINT($,(26,0.5,0.0818131939618));
#364=CARTESIAN_POINT($,(26,0.375,0.0818131939618));
#365=CARTESIAN_POINT($,(26,0.25,0.0818131939618));
#366=CARTESIAN_POINT($,(26,0.125,0.0818131939618));
#367=CARTESIAN_POINT($,(26,0,0.0818131939618));
#368=CARTESIAN_POINT($,(26,-0.125,0.0818131939618));
#369=CARTESIAN_POINT($,(26,-0.25,0.0818131939618));
#370=CARTESIAN_POINT($,(26,-0.375,0.0818131939618));
#371=CARTESIAN_POINT($,(26,-0.5,0.0818131939618));
#372=CARTESIAN_POINT($,(26,-0.625,0.0818131939618));
#373=CARTESIAN_POINT($,(26,-0.75,0.0818131939618));
#374=CARTESIAN_POINT($,(26,-0.875,0.0818131939618));
#375=CARTESIAN_POINT($,(26,-1,0.0818131939618));
#376=B_SPLINE_CURVE_WITH_KNOTS($,1,(#359,#360,#361,#362,#363,#364,#365,#366,#367,#368,#369,#370,#371,#372,#373,#374,#375),.UNSPECIFIED.,.F.,.F.,(2,1,1,1,1,1,1,1,1,1,1,1,1,1,1,1,2),(0,0.0625,0.125,0.1875,0.25,0.3125,0.375,0.4375,0.5,0.5625,0.625,0.6875,0.75,0.8125,0.875,0.9375,1),.UNSPECIFIED.);
#377=EDGE_CURVE($,#338,#292,#376,.T.);
#378=ORIENTED_EDGE($,$,$,#377,.T.);
#379=EDGE_LOOP($,(#314,#336,#358,#378));
#380=FACE_OUTER_BOUND('',#379,.T.);
#381=ADVANCED_FACE('',(#380),#290,.F.);
#382=CARTESIAN_POINT($,(26,-1,0.2818131939618));
#383=CARTESIAN_POINT($,(26,-0.875,0.2818131939618));
#384=CARTESIAN_POINT($,(26,-0.75,0.2818131939618));
#385=CARTESIAN_POINT($,(26,-0.625,0.2818131939618));
#386=CARTESIAN_POINT($,(26,-0.5,0.2818131939618));
#387=CARTESIAN_POINT($,(26,-0.375,0.2818131939618));
#388=CARTESIAN_POINT($,(26,-0.25,0.2818131939618));
#389=CARTESIAN_POINT($,(26,-0.125,0.2818131939618));
#390=CARTESIAN_POINT($,(26,0,0.2818131939618));
#391=CARTESIAN_POINT($,(26,0.125,0.2818131939618));
#392=CARTESIAN_POINT($,(26,0.25,0.2818131939618));
#393=CARTESIAN_POINT($,(26,0.375,0.2818131939618));
#394=CARTESIAN_POINT($,(26,0.5,0.2818131939618));
#395=CARTESIAN_POINT($,(26,0.625,0.2818131939618));
#396=CARTESIAN_POINT($,(26,0.75,0.2818131939618));
#397=CARTESIAN_POINT($,(26,0.875,0.2818131939618));
#398=CARTESIAN_POINT($,(26,1,0.2818131939618));
#399=CARTESIAN_POINT($,(26.6875,-1,0.263598015601735));
#400=CARTESIAN_POINT($,(26.6875,-0.875,0.263598015601735));
#401=CARTESIAN_POINT($,(26.6875,-0.75,0.263598015601735));
#402=CARTESIAN_POINT($,(26.6875,-0.625,0.263598015601735));
#403=CARTESIAN_POINT($,(26.6875,-0.5,0.263598015601735));
#404=CARTESIAN_POINT($,(26.6875,-0.375,0.263598015601735));
#405=CARTESIAN_POINT($,(26.6875,-0.25,0.263598015601735));
#406=CARTESIAN_POINT($,(26.6875,-0.125,0.263598015601735));
#407=CARTESIAN_POINT($,(26.6875,0,0.263598015601735));
#408=CARTESIAN_POINT($,(26.6875,0.125,0.263598015601735));
#409=CARTESIAN_POINT($,(26.6875,0.25,0.263598015601735));
#410=CARTESIAN_POINT($,(26.6875,0.375,0.263598015601735));
#411=CARTESIAN_POINT($,(26.6875,0.5,0.263598015601735));
#412=CARTESIAN_POINT($,(26.6875,0.625,0.263598015601735));
#413=CARTESIAN_POINT($,(26.6875,0.75,0.263598015601735));
#414=CARTESIAN_POINT($,(26.6875,0.875,0.263598015601735));
#415=CARTESIAN_POINT($,(26.6875,1,0.263598015601735));
#416=CARTESIAN_POINT($,(27.375,-1,0.247351636745936));
#417=CARTESIAN_POINT($,(27.375,-0.875,0.247351636745936));
#418=CARTESIAN_POINT($,(27.375,-0.75,0.247351636745936));
#419=CARTESIAN_POINT($,(27.375,-0.625,0.247351636745936));
#420=CARTESIAN_POINT($,(27.375,-0.5,0.247351636745936));
#421=CARTESIAN_POINT($,(27.375,-0.375,0.247351636745936));
#422=CARTESIAN_POINT($,(27.375,-0.25,0.247351636745936));
#423=CARTESIAN_POINT($,(27.375,-0.125,0.247351636745936));
#424=CARTESIAN_POINT($,(27.375,0,0.247351636745936));
#425=CARTESIAN_POINT($,(27.375,0.125,0.247351636745936));
#426=CARTESIAN_POINT($,(27.375,0.25,0.247351636745936));
#427=CARTESIAN_POINT($,(27.375,0.375,0.247351636745936));
#428=CARTESIAN_POINT($,(27.375,0.5,0.247351636745936));
#429=CARTESIAN_POINT($,(27.375,0.625,0.247351636745936));
#430=CARTESIAN_POINT($,(27.375,0.75,0.247351636745936));
#431=CARTESIAN_POINT($,(27.375,0.875,0.247351636745936));
#432=CARTESIAN_POINT($,(27.375,1,0.247351636745936));
#433=CARTESIAN_POINT($,(28.0625,-1,0.23323124452522));
#434=CARTESIAN_POINT($,(28.0625,-0.875,0.23323124452522));
#435=CARTESIAN_POINT($,(28.0625,-0.75,0.23323124452522));
#436=CARTESIAN_POINT($,(28.0625,-0.625,0.23323124452522));
#437=CARTESIAN_POINT($,(28.0625,-0.5,0.23323124452522));
#438=CARTESIAN_POINT($,(28.0625,-0.375,0.23323124452522));
#439=CARTESIAN_POINT($,(28.0625,-0.25,0.23323124452522));
#440=CARTESIAN_POINT($,(28.0625,-0.125,0.23323124452522));
#441=CARTESIAN_POINT($,(28.0625,0,0.23323124452522));
#442=CARTESIAN_POINT($,(28.0625,0.125,0.23323124452522));
#443=CARTESIAN_POINT($,(28.0625,0.25,0.23323124452522));
#444=CARTESIAN_POINT($,(28.0625,0.375,0.23323124452522));
#445=CARTESIAN_POINT($,(28.0625,0.5,0.23323124452522));
#446=CARTESIAN_POINT($,(28.0625,0.625,0.23323124452522));
#447=CARTESIAN_POINT($,(28.0625,0.75,0.23323124452522));
#448=CARTESIAN_POINT($,(28.0625,0.875,0.23323124452522));
#449=CARTESIAN_POINT($,(28.0625,1,0.23323124452522));
#450=CARTESIAN_POINT($,(28.75,-1,0.221394250160603));
#451=CARTESIAN_POINT($,(28.75,-0.875,0.221394250160603));
#452=CARTESIAN_POINT($,(28.75,-0.75,0.221394250160603));
#453=CARTESIAN_POINT($,(28.75,-0.625,0.221394250160603));
#454=CARTESIAN_POINT($,(28.75,-0.5,0.221394250160603));
#455=CARTESIAN_POINT($,(28.75,-0.375,0.221394250160603));
#456=CARTESIAN_POINT($,(28.75,-0.25,0.221394250160603));
#457=CARTESIAN_POINT($,(28.75,-0.125,0.221394250160603));
#458=CARTESIAN_POINT($,(28.75,0,0.221394250160603));
#459=CARTESIAN_POINT($,(28.75,0.125,0.221394250160603));
#460=CARTESIAN_POINT($,(28.75,0.25,0.221394250160603));
#461=CARTESIAN_POINT($,(28.75,0.375,0.221394250160603));
#462=CARTESIAN_POINT($,(28.75,0.5,0.221394250160603));
#463=CARTESIAN_POINT($,(28.75,0.625,0.221394250160603));
#464=CARTESIAN_POINT($,(28.75,0.75,0.221394250160603));
#465=CARTESIAN_POINT($,(28.75,0.875,0.221394250160603));
#466=CARTESIAN_POINT($,(28.75,1,0.221394250160603));
#467=CARTESIAN_POINT($,(29.4375,-1,0.211998048438758));
#468=CARTESIAN_POINT($,(29.4375,-0.875,0.211998048438758));
#469=CARTESIAN_POINT($,(29.4375,-0.75,0.211998048438758));
#470=CARTESIAN_POINT($,(29.4375,-0.625,0.211998048438758));
#471=CARTESIAN_POINT($,(29.4375,-0.5,0.211998048438758));
#472=CARTESIAN_POINT($,(29.4375,-0.375,0.211998048438758));
#473=CARTESIAN_POINT($,(29.4375,-0.25,0.211998048438758));
#474=CARTESIAN_POINT($,(29.4375,-0.125,0.211998048438758));
#475=CARTESIAN_POINT($,(29.4375,0,0.211998048438758));
#476=CARTESIAN_POINT($,(29.4375,0.125,0.211998048438758));
#477=CARTESIAN_POINT($,(29.4375,0.25,0.211998048438758));
#478=CARTESIAN_POINT($,(29.4375,0.375,0.211998048438758));
#479=CARTESIAN_POINT($,(29.4375,0.5,0.211998048438758));
#480=CARTESIAN_POINT($,(29.4375,0.625,0.211998048438758));
#481=CARTESIAN_POINT($,(29.4375,0.75,0.211998048438758));
#482=CARTESIAN_POINT($,(29.4375,0.875,0.211998048438758));
#483=CARTESIAN_POINT($,(29.4375,1,0.211998048438758));
#484=CARTESIAN_POINT($,(30.125,-1,0.205199776302891));
#485=CARTESIAN_POINT($,(30.125,-0.875,0.205199776302891));
#486=CARTESIAN_POINT($,(30.125,-0.75,0.205199776302891));
#487=CARTESIAN_POINT($,(30.125,-0.625,0.205199776302891));
#488=CARTESIAN_POINT($,(30.125,-0.5,0.205199776302891));
#489=CARTESIAN_POINT($,(30.125,-0.375,0.205199776302891));
#490=CARTESIAN_POINT($,(30.125,-0.25,0.205199776302891));
#491=CARTESIAN_POINT($,(30.125,-0.125,0.205199776302891));
#492=CARTESIAN_POINT($,(30.125,0,0.205199776302891));
#493=CARTESIAN_POINT($,(30.125,0.125,0.205199776302891));
#494=CARTESIAN_POINT($,(30.125,0.25,0.205199776302891));
#495=CARTESIAN_POINT($,(30.125,0.375,0.205199776302891));
#496=CARTESIAN_POINT($,(30.125,0.5,0.205199776302891));
#497=CARTESIAN_POINT($,(30.125,0.625,0.205199776302891));
#498=CARTESIAN_POINT($,(30.125,0.75,0.205199776302891));
#499=CARTESIAN_POINT($,(30.125,0.875,0.205199776302891));
#500=CARTESIAN_POINT($,(30.125,1,0.205199776302891));
#501=CARTESIAN_POINT($,(30.8125,-1,0.201156070874553));
#502=CARTESIAN_POINT($,(30.8125,-0.875,0.201156070874553));
#503=CARTESIAN_POINT($,(30.8125,-0.75,0.201156070874553));
#504=CARTESIAN_POINT($,(30.8125,-0.625,0.201156070874553));
#505=CARTESIAN_POINT($,(30.8125,-0.5,0.201156070874553));
#506=CARTESIAN_POINT($,(30.8125,-0.375,0.201156070874553));
#507=CARTESIAN_POINT($,(30.8125,-0.25,0.201156070874553));
#508=CARTESIAN_POINT($,(30.8125,-0.125,0.201156070874553));
#509=CARTESIAN_POINT($,(30.8125,0,0.201156070874553));
#510=CARTESIAN_POINT($,(30.8125,0.125,0.201156070874553));
#511=CARTESIAN_POINT($,(30.8125,0.25,0.201156070874553));
#512=CARTESIAN_POINT($,(30.8125,0.375,0.201156070874553));
#513=CARTESIAN_POINT($,(30.8125,0.5,0.201156070874553));
#514=CARTESIAN_POINT($,(30.8125,0.625,0.201156070874553));
#515=CARTESIAN_POINT($,(30.8125,0.75,0.201156070874553));
#516=CARTESIAN_POINT($,(30.8125,0.875,0.201156070874553));
#517=CARTESIAN_POINT($,(30.8125,1,0.201156070874553));
#518=CARTESIAN_POINT($,(31.5,-1,0.200022827222994));
#519=CARTESIAN_POINT($,(31.5,-0.875,0.200022827222994));
#520=CARTESIAN_POINT($,(31.5,-0.75,0.200022827222994));
#521=CARTESIAN_POINT($,(31.5,-0.625,0.200022827222994));
#522=CARTESIAN_POINT($,(31.5,-0.5,0.200022827222994));
#523=CARTESIAN_POINT($,(31.5,-0.375,0.200022827222994));
#524=CARTESIAN_POINT($,(31.5,-0.25,0.200022827222994));
#525=CARTESIAN_POINT($,(31.5,-0.125,0.200022827222994));
#526=CARTESIAN_POINT($,(31.5,0,0.200022827222994));
#527=CARTESIAN_POINT($,(31.5,0.125,0.200022827222994));
#528=CARTESIAN_POINT($,(31.5,0.25,0.200022827222994));
#529=CARTESIAN_POINT($,(31.5,0.375,0.200022827222994));
#530=CARTESIAN_POINT($,(31.5,0.5,0.200022827222994));
#531=CARTESIAN_POINT($,(31.5,0.625,0.200022827222994));
#532=CARTESIAN_POINT($,(31.5,0.75,0.200022827222994));
#533=CARTESIAN_POINT($,(31.5,0.875,0.200022827222994));
#534=CARTESIAN_POINT($,(31.5,1,0.200022827222994));
#535=CARTESIAN_POINT($,(32.1875,-1,0.201954956199399));
#536=CARTESIAN_POINT($,(32.1875,-0.875,0.201954956199399));
#537=CARTESIAN_POINT($,(32.1875,-0.75,0.201954956199399));
#538=CARTESIAN_POINT($,(32.1875,-0.625,0.201954956199399));
#539=CARTESIAN_POINT($,(32.1875,-0.5,0.201954956199399));
#540=CARTESIAN_POINT($,(32.1875,-0.375,0.201954956199399));
#541=CARTESIAN_POINT($,(32.1875,-0.25,0.201954956199399));
#542=CARTESIAN_POINT($,(32.1875,-0.125,0.201954956199399));
#543=CARTESIAN_POINT($,(32.1875,0,0.201954956199399));
#544=CARTESIAN_POINT($,(32.1875,0.125,0.201954956199399));
#545=CARTESIAN_POINT($,(32.1875,0.25,0.201954956199399));
#546=CARTESIAN_POINT($,(32.1875,0.375,0.201954956199399));
#547=CARTESIAN_POINT($,(32.1875,0.5,0.201954956199399));
#548=CARTESIAN_POINT($,(32.1875,0.625,0.201954956199399));
#549=CARTESIAN_POINT($,(32.1875,0.75,0.201954956199399));
#550=CARTESIAN_POINT($,(32.1875,0.875,0.201954956199399));
#551=CARTESIAN_POINT($,(32.1875,1,0.201954956199399));
#552=CARTESIAN_POINT($,(32.875,-1,0.207106142653669));
#553=CARTESIAN_POINT($,(32.875,-0.875,0.207106142653669));
#554=CARTESIAN_POINT($,(32.875,-0.75,0.207106142653669));
#555=CARTESIAN_POINT($,(32.875,-0.625,0.207106142653669));
#556=CARTESIAN_POINT($,(32.875,-0.5,0.207106142653669));
#557=CARTESIAN_POINT($,(32.875,-0.375,0.207106142653669));
#558=CARTESIAN_POINT($,(32.875,-0.25,0.207106142653669));
#559=CARTESIAN_POINT($,(32.875,-0.125,0.207106142653669));
#560=CARTESIAN_POINT($,(32.875,0,0.207106142653669));
#561=CARTESIAN_POINT($,(32.875,0.125,0.207106142653669));
#562=CARTESIAN_POINT($,(32.875,0.25,0.207106142653669));
#563=CARTESIAN_POINT($,(32.875,0.375,0.207106142653669));
#564=CARTESIAN_POINT($,(32.875,0.5,0.207106142653669));
#565=CARTESIAN_POINT($,(32.875,0.625,0.207106142653669));
#566=CARTESIAN_POINT($,(32.875,0.75,0.207106142653669));
#567=CARTESIAN_POINT($,(32.875,0.875,0.207106142653669));
#568=CARTESIAN_POINT($,(32.875,1,0.207106142653669));
#569=CARTESIAN_POINT($,(33.5625,-1,0.215628604351237));
#570=CARTESIAN_POINT($,(33.5625,-0.875,0.215628604351237));
#571=CARTESIAN_POINT($,(33.5625,-0.75,0.215628604351237));
#572=CARTESIAN_POINT($,(33.5625,-0.625,0.215628604351237));
#573=CARTESIAN_POINT($,(33.5625,-0.5,0.215628604351237));
#574=CARTESIAN_POINT($,(33.5625,-0.375,0.215628604351237));
#575=CARTESIAN_POINT($,(33.5625,-0.25,0.215628604351237));
#576=CARTESIAN_POINT($,(33.5625,-0.125,0.215628604351237));
#577=CARTESIAN_POINT($,(33.5625,0,0.215628604351237));
#578=CARTESIAN_POINT($,(33.5625,0.125,0.215628604351237));
#579=CARTESIAN_POINT($,(33.5625,0.25,0.215628604351237));
#580=CARTESIAN_POINT($,(33.5625,0.375,0.215628604351237));
#581=CARTESIAN_POINT($,(33.5625,0.5,0.215628604351237));
#582=CARTESIAN_POINT($,(33.5625,0.625,0.215628604351237));
#583=CARTESIAN_POINT($,(33.5625,0.75,0.215628604351237));
#584=CARTESIAN_POINT($,(33.5625,0.875,0.215628604351237));
#585=CARTESIAN_POINT($,(33.5625,1,0.215628604351237));
#586=CARTESIAN_POINT($,(34.25,-1,0.227672851906991));
#587=CARTESIAN_POINT($,(34.25,-0.875,0.227672851906991));
#588=CARTESIAN_POINT($,(34.25,-0.75,0.227672851906991));
#589=CARTESIAN_POINT($,(34.25,-0.625,0.227672851906991));
#590=CARTESIAN_POINT($,(34.25,-0.5,0.227672851906991));
#591=CARTESIAN_POINT($,(34.25,-0.375,0.227672851906991));
#592=CARTESIAN_POINT($,(34.25,-0.25,0.227672851906991));
#593=CARTESIAN_POINT($,(34.25,-0.125,0.227672851906991));
#594=CARTESIAN_POINT($,(34.25,0,0.227672851906991));
#595=CARTESIAN_POINT($,(34.25,0.125,0.227672851906991));
#596=CARTESIAN_POINT($,(34.25,0.25,0.227672851906991));
#597=CARTESIAN_POINT($,(34.25,0.375,0.227672851906991));
#598=CARTESIAN_POINT($,(34.25,0.5,0.227672851906991));
#599=CARTESIAN_POINT($,(34.25,0.625,0.227672851906991));
#600=CARTESIAN_POINT($,(34.25,0.75,0.227672851906991));
#601=CARTESIAN_POINT($,(34.25,0.875,0.227672851906991));
#602=CARTESIAN_POINT($,(34.25,1,0.227672851906991));
#603=CARTESIAN_POINT($,(34.9375,-1,0.243387450052483));
#604=CARTESIAN_POINT($,(34.9375,-0.875,0.243387450052483));
#605=CARTESIAN_POINT($,(34.9375,-0.75,0.243387450052483));
#606=CARTESIAN_POINT($,(34.9375,-0.625,0.243387450052483));
#607=CARTESIAN_POINT($,(34.9375,-0.5,0.243387450052483));
#608=CARTESIAN_POINT($,(34.9375,-0.375,0.243387450052483));
#609=CARTESIAN_POINT($,(34.9375,-0.25,0.243387450052483));
#610=CARTESIAN_POINT($,(34.9375,-0.125,0.243387450052483));
#611=CARTESIAN_POINT($,(34.9375,0,0.243387450052483));
#612=CARTESIAN_POINT($,(34.9375,0.125,0.243387450052483));
#613=CARTESIAN_POINT($,(34.9375,0.25,0.243387450052483));
#614=CARTESIAN_POINT($,(34.9375,0.375,0.243387450052483));
#615=CARTESIAN_POINT($,(34.9375,0.5,0.243387450052483));
#616=CARTESIAN_POINT($,(34.9375,0.625,0.243387450052483));
#617=CARTESIAN_POINT($,(34.9375,0.75,0.243387450052483));
#618=CARTESIAN_POINT($,(34.9375,0.875,0.243387450052483));
#619=CARTESIAN_POINT($,(34.9375,1,0.243387450052483));
#620=CARTESIAN_POINT($,(35.625,-1,0.262918780551317));
#621=CARTESIAN_POINT($,(35.625,-0.875,0.262918780551317));
#622=CARTESIAN_POINT($,(35.625,-0.75,0.262918780551317));
#623=CARTESIAN_POINT($,(35.625,-0.625,0.262918780551317));
#624=CARTESIAN_POINT($,(35.625,-0.5,0.262918780551317));
#625=CARTESIAN_POINT($,(35.625,-0.375,0.262918780551317));
#626=CARTESIAN_POINT($,(35.625,-0.25,0.262918780551317));
#627=CARTESIAN_POINT($,(35.625,-0.125,0.262918780551317));
#628=CARTESIAN_POINT($,(35.625,0,0.262918780551317));
#629=CARTESIAN_POINT($,(35.625,0.125,0.262918780551317));
#630=CARTESIAN_POINT($,(35.625,0.25,0.262918780551317));
#631=CARTESIAN_POINT($,(35.625,0.375,0.262918780551317));
#632=CARTESIAN_POINT($,(35.625,0.5,0.262918780551317));
#633=CARTESIAN_POINT($,(35.625,0.625,0.262918780551317));
#634=CARTESIAN_POINT($,(35.625,0.75,0.262918780551317));
#635=CARTESIAN_POINT($,(35.625,0.875,0.262918780551317));
#636=CARTESIAN_POINT($,(35.625,1,0.262918780551317));
#637=CARTESIAN_POINT($,(36.3125,-1,0.286410807075953));
#638=CARTESIAN_POINT($,(36.3125,-0.875,0.286410807075953));
#639=CARTESIAN_POINT($,(36.3125,-0.75,0.286410807075953));
#640=CARTESIAN_POINT($,(36.3125,-0.625,0.286410807075953));
#641=CARTESIAN_POINT($,(36.3125,-0.5,0.286410807075953));
#642=CARTESIAN_POINT($,(36.3125,-0.375,0.286410807075953));
#643=CARTESIAN_POINT($,(36.3125,-0.25,0.286410807075953));
#644=CARTESIAN_POINT($,(36.3125,-0.125,0.286410807075953));
#645=CARTESIAN_POINT($,(36.3125,0,0.286410807075953));
#646=CARTESIAN_POINT($,(36.3125,0.125,0.286410807075953));
#647=CARTESIAN_POINT($,(36.3125,0.25,0.286410807075953));
#648=CARTESIAN_POINT($,(36.3125,0.375,0.286410807075953));
#649=CARTESIAN_POINT($,(36.3125,0.5,0.286410807075953));
#650=CARTESIAN_POINT($,(36.3125,0.625,0.286410807075953));
#651=CARTESIAN_POINT($,(36.3125,0.75,0.286410807075953));
#652=CARTESIAN_POINT($,(36.3125,0.875,0.286410807075953));
#653=CARTESIAN_POINT($,(36.3125,1,0.286410807075953));
#654=CARTESIAN_POINT($,(37,-1,0.314004842357012));
#655=CARTESIAN_POINT($,(37,-0.875,0.314004842357012));
#656=CARTESIAN_POINT($,(37,-0.75,0.314004842357012));
#657=CARTESIAN_POINT($,(37,-0.625,0.314004842357012));
#658=CARTESIAN_POINT($,(37,-0.5,0.314004842357012));
#659=CARTESIAN_POINT($,(37,-0.375,0.314004842357012));
#660=CARTESIAN_POINT($,(37,-0.25,0.314004842357012));
#661=CARTESIAN_POINT($,(37,-0.125,0.314004842357012));
#662=CARTESIAN_POINT($,(37,0,0.314004842357012));
#663=CARTESIAN_POINT($,(37,0.125,0.314004842357012));
#664=CARTESIAN_POINT($,(37,0.25,0.314004842357012));
#665=CARTESIAN_POINT($,(37,0.375,0.314004842357012));
#666=CARTESIAN_POINT($,(37,0.5,0.314004842357012));
#667=CARTESIAN_POINT($,(37,0.625,0.314004842357012));
#668=CARTESIAN_POINT($,(37,0.75,0.314004842357012));
#669=CARTESIAN_POINT($,(37,0.875,0.314004842357012));
#670=CARTESIAN_POINT($,(37,1,0.314004842357012));
#671=B_SPLINE_SURFACE_WITH_KNOTS($,1,1,((#382,#383,#384,#385,#386,#387,#388,#389,#390,#391,#392,#393,#394,#395,#396,#397,#398),(#399,#400,#401,#402,#403,#404,#405,#406,#407,#408,#409,#410,#411,#412,#413,#414,#415),(#416,#417,#418,#419,#420,#421,#422,#423,#424,#425,#426,#427,#428,#429,#430,#431,#432),(#433,#434,#435,#436,#437,#438,#439,#440,#441,#442,#443,#444,#445,#446,#447,#448,#449),(#450,#451,#452,#453,#454,#455,#456,#457,#458,#459,#460,#461,#462,#463,#464,#465,#466),(#467,#468,#469,#470,#471,#472,#473,#474,#475,#476,#477,#478,#479,#480,#481,#482,#483),(#484,#485,#486,#487,#488,#489,#490,#491,#492,#493,#494,#495,#496,#497,#498,#499,#500),(#501,#502,#503,#504,#505,#506,#507,#508,#509,#510,#511,#512,#513,#514,#515,#516,#517),(#518,#519,#520,#521,#522,#523,#524,#525,#526,#527,#528,#529,#530,#531,#532,#533,#534),(#535,#536,#537,#538,#539,#540,#541,#542,#543,#544,#545,#546,#547,#548,#549,#550,#551),(#552,#553,#554,#555,#556,#557,#558,#559,#560,#561,#562,#563,#564,#565,#566,#567,#568),(#569,#570,#571,#572,#573,#574,#575,#576,#577,#578,#579,#580,#581,#582,#583,#584,#585),(#586,#587,#588,#589,#590,#591,#592,#593,#594,#595,#596,#597,#598,#599,#600,#601,#602),(#603,#604,#605,#606,#607,#608,#609,#610,#611,#612,#613,#614,#615,#616,#617,#618,#619),(#620,#621,#622,#623,#624,#625,#626,#627,#628,#629,#630,#631,#632,#633,#634,#635,#636),(#637,#638,#639,#640,#641,#642,#643,#644,#645,#646,#647,#648,#649,#650,#651,#652,#653),(#654,#655,#656,#657,#658,#659,#660,#661,#662,#663,#664,#665,#666,#667,#668,#669,#670)),.SURFACE_OF_LINEAR_EXTRUSION.,.F.,.F.,.F.,(2,1,1,1,1,1,1,1,1,1,1,1,1,1,1,1,2),(2,1,1,1,1,1,1,1,1,1,1,1,1,1,1,1,2),(0,0.0625,0.125,0.1875,0.25,0.3125,0.375,0.4375,0.5,0.5625,0.625,0.6875,0.75,0.8125,0.875,0.9375,1),(0,0.0625,0.125,0.1875,0.25,0.3125,0.375,0.4375,0.5,0.5625,0.625,0.6875,0.75,0.8125,0.875,0.9375,1),.UNSPECIFIED.);
#672=CARTESIAN_POINT($,(26,1,0.2818131939618));
#673=VERTEX_POINT($,#672);
#674=CARTESIAN_POINT($,(26,-1,0.2818131939618));
#675=VERTEX_POINT($,#674);
#676=CARTESIAN_POINT($,(26,1,0.2818131939618));
#677=CARTESIAN_POINT($,(26,0.875,0.2818131939618));
#678=CARTESIAN_POINT($,(26,0.75,0.2818131939618));
#679=CARTESIAN_POINT($,(26,0.625,0.2818131939618));
#680=CARTESIAN_POINT($,(26,0.5,0.2818131939618));
#681=CARTESIAN_POINT($,(26,0.375,0.2818131939618));
#682=CARTESIAN_POINT($,(26,0.25,0.2818131939618));
#683=CARTESIAN_POINT($,(26,0.125,0.2818131939618));
#684=CARTESIAN_POINT($,(26,0,0.2818131939618));
#685=CARTESIAN_POINT($,(26,-0.125,0.2818131939618));
#686=CARTESIAN_POINT($,(26,-0.25,0.2818131939618));
#687=CARTESIAN_POINT($,(26,-0.375,0.2818131939618));
#688=CARTESIAN_POINT($,(26,-0.5,0.2818131939618));
#689=CARTESIAN_POINT($,(26,-0.625,0.2818131939618));
#690=CARTESIAN_POINT($,(26,-0.75,0.2818131939618));
#691=CARTESIAN_POINT($,(26,-0.875,0.2818131939618));
#692=CARTESIAN_POINT($,(26,-1,0.2818131939618));
#693=B_SPLINE_CURVE_WITH_KNOTS($,1,(#676,#677,#678,#679,#680,#681,#682,#683,#684,#685,#686,#687,#688,#689,#690,#691,#692),.UNSPECIFIED.,.F.,.F.,(2,1,1,1,1,1,1,1,1,1,1,1,1,1,1,1,2),(0,0.0625,0.125,0.1875,0.25,0.3125,0.375,0.4375,0.5,0.5625,0.625,0.6875,0.75,0.8125,0.875,0.9375,1),.UNSPECIFIED.);
#694=EDGE_CURVE($,#673,#675,#693,.T.);
#695=ORIENTED_EDGE($,$,$,#694,.F.);
#696=CARTESIAN_POINT($,(37,1,0.314004842357012));
#697=VERTEX_POINT($,#696);
#698=CARTESIAN_POINT($,(37,1,0.314004842357012));
#699=CARTESIAN_POINT($,(36.3125,1,0.286410807075953));
#700=CARTESIAN_POINT($,(35.625,1,0.262918780551317));
#701=CARTESIAN_POINT($,(34.9375,1,0.243387450052483));
#702=CARTESIAN_POINT($,(34.25,1,0.227672851906991));
#703=CARTESIAN_POINT($,(33.5625,1,0.215628604351237));
#704=CARTESIAN_POINT($,(32.875,1,0.207106142653669));
#705=CARTESIAN_POINT($,(32.1875,1,0.201954956199399));
#706=CARTESIAN_POINT($,(31.5,1,0.200022827222994));
#707=CARTESIAN_POINT($,(30.8125,1,0.201156070874553));
#708=CARTESIAN_POINT($,(30.125,1,0.205199776302891));
#709=CARTESIAN_POINT($,(29.4375,1,0.211998048438758));
#710=CARTESIAN_POINT($,(28.75,1,0.221394250160603));
#711=CARTESIAN_POINT($,(28.0625,1,0.23323124452522));
#712=CARTESIAN_POINT($,(27.375,1,0.247351636745936));
#713=CARTESIAN_POINT($,(26.6875,1,0.263598015601735));
#714=CARTESIAN_POINT($,(26,1,0.2818131939618));
#715=B_SPLINE_CURVE_WITH_KNOTS($,1,(#698,#699,#700,#701,#702,#703,#704,#705,#706,#707,#708,#709,#710,#711,#712,#713,#714),.UNSPECIFIED.,.F.,.F.,(2,1,1,1,1,1,1,1,1,1,1,1,1,1,1,1,2),(0,0.0625,0.125,0.1875,0.25,0.3125,0.375,0.4375,0.5,0.5625,0.625,0.6875,0.75,0.8125,0.875,0.9375,1),.UNSPECIFIED.);
#716=EDGE_CURVE($,#697,#673,#715,.T.);
#717=ORIENTED_EDGE($,$,$,#716,.F.);
#718=CARTESIAN_POINT($,(37,-1,0.314004842357012));
#719=VERTEX_POINT($,#718);
#720=CARTESIAN_POINT($,(37,-1,0.314004842357012));
#721=CARTESIAN_POINT($,(37,-0.875,0.314004842357012));
#722=CARTESIAN_POINT($,(37,-0.75,0.314004842357012));
#723=CARTESIAN_POINT($,(37,-0.625,0.314004842357012));
#724=CARTESIAN_POINT($,(37,-0.5,0.314004842357012));
#725=CARTESIAN_POINT($,(37,-0.375,0.314004842357012));
#726=CARTESIAN_POINT($,(37,-0.25,0.314004842357012));
#727=CARTESIAN_POINT($,(37,-0.125,0.314004842357012));
#728=CARTESIAN_POINT($,(37,0,0.314004842357012));
#729=CARTESIAN_POINT($,(37,0.125,0.314004842357012));
#730=CARTESIAN_POINT($,(37,0.25,0.314004842357012));
#731=CARTESIAN_POINT($,(37,0.375,0.314004842357012));
#732=CARTESIAN_POINT($,(37,0.5,0.314004842357012));
#733=CARTESIAN_POINT($,(37,0.625,0.314004842357012));
#734=CARTESIAN_POINT($,(37,0.75,0.314004842357012));
#735=CARTESIAN_POINT($,(37,0.875,0.314004842357012));
#736=CARTESIAN_POINT($,(37,1,0.314004842357012));
#737=B_SPLINE_CURVE_WITH_KNOTS($,1,(#720,#721,#722,#723,#724,#725,#726,#727,#728,#729,#730,#731,#732,#733,#734,#735,#736),.UNSPECIFIED.,.F.,.F.,(2,1,1,1,1,1,1,1,1,1,1,1,1,1,1,1,2),(0,0.0625,0.125,0.1875,0.25,0.3125,0.375,0.4375,0.5,0.5625,0.625,0.6875,0.75,0.8125,0.875,0.9375,1),.UNSPECIFIED.);
#738=EDGE_CURVE($,#719,#697,#737,.T.);
#739=ORIENTED_EDGE($,$,$,#738,.F.);
#740=CARTESIAN_POINT($,(26,-1,0.2818131939618));
#741=CARTESIAN_POINT($,(26.6875,-1,0.263598015601735));
#742=CARTESIAN_POINT($,(27.375,-1,0.247351636745936));
#743=CARTESIAN_POINT($,(28.0625,-1,0.23323124452522));
#744=CARTESIAN_POINT($,(28.75,-1,0.221394250160603));
#745=CARTESIAN_POINT($,(29.4375,-1,0.211998048438758));
#746=CARTESIAN_POINT($,(30.125,-1,0.205199776302891));
#747=CARTESIAN_POINT($,(30.8125,-1,0.201156070874553));
#748=CARTESIAN_POINT($,(31.5,-1,0.200022827222994));
#749=CARTESIAN_POINT($,(32.1875,-1,0.201954956199399));
#750=CARTESIAN_POINT($,(32.875,-1,0.207106142653669));
#751=CARTESIAN_POINT($,(33.5625,-1,0.215628604351237));
#752=CARTESIAN_POINT($,(34.25,-1,0.227672851906991));
#753=CARTESIAN_POINT($,(34.9375,-1,0.243387450052483));
#754=CARTESIAN_POINT($,(35.625,-1,0.262918780551317));
#755=CARTESIAN_POINT($,(36.3125,-1,0.286410807075953));
#756=CARTESIAN_POINT($,(37,-1,0.314004842357012));
#757=B_SPLINE_CURVE_WITH_KNOTS($,1,(#740,#741,#742,#743,#744,#745,#746,#747,#748,#749,#750,#751,#752,#753,#754,#755,#756),.UNSPECIFIED.,.F.,.F.,(2,1,1,1,1,1,1,1,1,1,1,1,1,1,1,1,2),(0,0.0625,0.125,0.1875,0.25,0.3125,0.375,0.4375,0.5,0.5625,0.625,0.6875,0.75,0.8125,0.875,0.9375,1),.UNSPECIFIED.);
#758=EDGE_CURVE($,#675,#719,#757,.T.);
#759=ORIENTED_EDGE($,$,$,#758,.F.);
#760=EDGE_LOOP($,(#695,#717,#739,#759));
#761=FACE_OUTER_BOUND('',#760,.T.);
#762=ADVANCED_FACE('',(#761),#671,.T.);
#763=CARTESIAN_POINT($,(26,-1,0.0818131939618));
#764=CARTESIAN_POINT($,(26,-1,0.2818131939618));
#765=CARTESIAN_POINT($,(26.6875,-1,0.063598015601735));
#766=CARTESIAN_POINT($,(26.6875,-1,0.263598015601735));
#767=CARTESIAN_POINT($,(27.375,-1,0.047351636745937));
#768=CARTESIAN_POINT($,(27.375,-1,0.247351636745936));
#769=CARTESIAN_POINT($,(28.0625,-1,0.03323124452522));
#770=CARTESIAN_POINT($,(28.0625,-1,0.23323124452522));
#771=CARTESIAN_POINT($,(28.75,-1,0.021394250160603));
#772=CARTESIAN_POINT($,(28.75,-1,0.221394250160603));
#773=CARTESIAN_POINT($,(29.4375,-1,0.011998048438758));
#774=CARTESIAN_POINT($,(29.4375,-1,0.211998048438758));
#775=CARTESIAN_POINT($,(30.125,-1,0.005199776302891));
#776=CARTESIAN_POINT($,(30.125,-1,0.205199776302891));
#777=CARTESIAN_POINT($,(30.8125,-1,0.001156070874553));
#778=CARTESIAN_POINT($,(30.8125,-1,0.201156070874553));
#779=CARTESIAN_POINT($,(31.5,-1,0.000022827222994));
#780=CARTESIAN_POINT($,(31.5,-1,0.200022827222994));
#781=CARTESIAN_POINT($,(32.1875,-1,0.001954956199399));
#782=CARTESIAN_POINT($,(32.1875,-1,0.201954956199399));
#783=CARTESIAN_POINT($,(32.875,-1,0.007106142653669));
#784=CARTESIAN_POINT($,(32.875,-1,0.207106142653669));
#785=CARTESIAN_POINT($,(33.5625,-1,0.015628604351237));
#786=CARTESIAN_POINT($,(33.5625,-1,0.215628604351237));
#787=CARTESIAN_POINT($,(34.25,-1,0.027672851906991));
#788=CARTESIAN_POINT($,(34.25,-1,0.227672851906991));
#789=CARTESIAN_POINT($,(34.9375,-1,0.043387450052483));
#790=CARTESIAN_POINT($,(34.9375,-1,0.243387450052483));
#791=CARTESIAN_POINT($,(35.625,-1,0.062918780551317));
#792=CARTESIAN_POINT($,(35.625,-1,0.262918780551317));
#793=CARTESIAN_POINT($,(36.3125,-1,0.086410807075953));
#794=CARTESIAN_POINT($,(36.3125,-1,0.286410807075953));
#795=CARTESIAN_POINT($,(37,-1,0.114004842357012));
#796=CARTESIAN_POINT($,(37,-1,0.314004842357012));
#797=B_SPLINE_SURFACE_WITH_KNOTS($,1,1,((#763,#764),(#765,#766),(#767,#768),(#769,#770),(#771,#772),(#773,#774),(#775,#776),(#777,#778),(#779,#780),(#781,#782),(#783,#784),(#785,#786),(#787,#788),(#789,#790),(#791,#792),(#793,#794),(#795,#796)),.RULED_SURFACE.,.F.,.F.,.F.,(2,1,1,1,1,1,1,1,1,1,1,1,1,1,1,1,2),(2,2),(0,0.0625,0.125,0.1875,0.25,0.3125,0.375,0.4375,0.5,0.5625,0.625,0.6875,0.75,0.8125,0.875,0.9375,1),(0,1),.UNSPECIFIED.);
#798=ORIENTED_EDGE($,$,$,#313,.T.);
#799=CARTESIAN_POINT($,(37,-1,0.114004842357012));
#800=DIRECTION($,(0,0,1));
#801=VECTOR($,#800,1);
#802=LINE($,#799,#801);
#803=EDGE_CURVE($,#294,#719,#802,.T.);
#804=ORIENTED_EDGE($,$,$,#803,.T.);
#805=ORIENTED_EDGE($,$,$,#758,.F.);
#806=CARTESIAN_POINT($,(26,-1,0.0818131939618));
#807=DIRECTION($,(0,0,1));
#808=VECTOR($,#807,1);
#809=LINE($,#806,#808);
#810=EDGE_CURVE($,#292,#675,#809,.T.);
#811=ORIENTED_EDGE($,$,$,#810,.F.);
#812=EDGE_LOOP($,(#798,#804,#805,#811));
#813=FACE_OUTER_BOUND('',#812,.T.);
#814=ADVANCED_FACE('',(#813),#797,.T.);
#815=CARTESIAN_POINT($,(37,-1,0.114004842357012));
#816=CARTESIAN_POINT($,(37,-1,0.314004842357012));
#817=CARTESIAN_POINT($,(37,-0.875,0.114004842357012));
#818=CARTESIAN_POINT($,(37,-0.875,0.314004842357012));
#819=CARTESIAN_POINT($,(37,-0.75,0.114004842357012));
#820=CARTESIAN_POINT($,(37,-0.75,0.314004842357012));
#821=CARTESIAN_POINT($,(37,-0.625,0.114004842357012));
#822=CARTESIAN_POINT($,(37,-0.625,0.314004842357012));
#823=CARTESIAN_POINT($,(37,-0.5,0.114004842357012));
#824=CARTESIAN_POINT($,(37,-0.5,0.314004842357012));
#825=CARTESIAN_POINT($,(37,-0.375,0.114004842357012));
#826=CARTESIAN_POINT($,(37,-0.375,0.314004842357012));
#827=CARTESIAN_POINT($,(37,-0.25,0.114004842357012));
#828=CARTESIAN_POINT($,(37,-0.25,0.314004842357012));
#829=CARTESIAN_POINT($,(37,-0.125,0.114004842357012));
#830=CARTESIAN_POINT($,(37,-0.125,0.314004842357012));
#831=CARTESIAN_POINT($,(37,0,0.114004842357012));
#832=CARTESIAN_POINT($,(37,0,0.314004842357012));
#833=CARTESIAN_POINT($,(37,0.125,0.114004842357012));
#834=CARTESIAN_POINT($,(37,0.125,0.314004842357012));
#835=CARTESIAN_POINT($,(37,0.25,0.114004842357012));
#836=CARTESIAN_POINT($,(37,0.25,0.314004842357012));
#837=CARTESIAN_POINT($,(37,0.375,0.114004842357012));
#838=CARTESIAN_POINT($,(37,0.375,0.314004842357012));
#839=CARTESIAN_POINT($,(37,0.5,0.114004842357012));
#840=CARTESIAN_POINT($,(37,0.5,0.314004842357012));
#841=CARTESIAN_POINT($,(37,0.625,0.114004842357012));
#842=CARTESIAN_POINT($,(37,0.625,0.314004842357012));
#843=CARTESIAN_POINT($,(37,0.75,0.114004842357012));
#844=CARTESIAN_POINT($,(37,0.75,0.314004842357012));
#845=CARTESIAN_POINT($,(37,0.875,0.114004842357012));
#846=CARTESIAN_POINT($,(37,0.875,0.314004842357012));
#847=CARTESIAN_POINT($,(37,1,0.114004842357012));
#848=CARTESIAN_POINT($,(37,1,0.314004842357012));
#849=B_SPLINE_SURFACE_WITH_KNOTS($,1,1,((#815,#816),(#817,#818),(#819,#820),(#821,#822),(#823,#824),(#825,#826),(#827,#828),(#829,#830),(#831,#832),(#833,#834),(#835,#836),(#837,#838),(#839,#840),(#841,#842),(#843,#844),(#845,#846),(#847,#848)),.RULED_SURFACE.,.F.,.F.,.F.,(2,1,1,1,1,1,1,1,1,1,1,1,1,1,1,1,2),(2,2),(0,0.0625,0.125,0.1875,0.25,0.3125,0.375,0.4375,0.5,0.5625,0.625,0.6875,0.75,0.8125,0.875,0.9375,1),(0,1),.UNSPECIFIED.);
#850=ORIENTED_EDGE($,$,$,#335,.T.);
#851=CARTESIAN_POINT($,(37,1,0.114004842357012));
#852=DIRECTION($,(0,0,1));
#853=VECTOR($,#852,1);
#854=LINE($,#851,#853);
#855=EDGE_CURVE($,#316,#697,#854,.T.);
#856=ORIENTED_EDGE($,$,$,#855,.T.);
#857=ORIENTED_EDGE($,$,$,#738,.F.);
#858=ORIENTED_EDGE($,$,$,#803,.F.);
#859=EDGE_LOOP($,(#850,#856,#857,#858));
#860=FACE_OUTER_BOUND('',#859,.T.);
#861=ADVANCED_FACE('',(#860),#849,.T.);
#862=CARTESIAN_POINT($,(37,1,0.114004842357012));
#863=CARTESIAN_POINT($,(37,1,0.314004842357012));
#864=CARTESIAN_POINT($,(36.3125,1,0.086410807075953));
#865=CARTESIAN_POINT($,(36.3125,1,0.286410807075953));
#866=CARTESIAN_POINT($,(35.625,1,0.062918780551317));
#867=CARTESIAN_POINT($,(35.625,1,0.262918780551317));
#868=CARTESIAN_POINT($,(34.9375,1,0.043387450052483));
#869=CARTESIAN_POINT($,(34.9375,1,0.243387450052483));
#870=CARTESIAN_POINT($,(34.25,1,0.027672851906991));
#871=CARTESIAN_POINT($,(34.25,1,0.227672851906991));
#872=CARTESIAN_POINT($,(33.5625,1,0.015628604351237));
#873=CARTESIAN_POINT($,(33.5625,1,0.215628604351237));
#874=CARTESIAN_POINT($,(32.875,1,0.007106142653669));
#875=CARTESIAN_POINT($,(32.875,1,0.207106142653669));
#876=CARTESIAN_POINT($,(32.1875,1,0.001954956199399));
#877=CARTESIAN_POINT($,(32.1875,1,0.201954956199399));
#878=CARTESIAN_POINT($,(31.5,1,0.000022827222994));
#879=CARTESIAN_POINT($,(31.5,1,0.200022827222994));
#880=CARTESIAN_POINT($,(30.8125,1,0.001156070874553));
#881=CARTESIAN_POINT($,(30.8125,1,0.201156070874553));
#882=CARTESIAN_POINT($,(30.125,1,0.005199776302891));
#883=CARTESIAN_POINT($,(30.125,1,0.205199776302891));
#884=CARTESIAN_POINT($,(29.4375,1,0.011998048438758));
#885=CARTESIAN_POINT($,(29.4375,1,0.211998048438758));
#886=CARTESIAN_POINT($,(28.75,1,0.021394250160603));
#887=CARTESIAN_POINT($,(28.75,1,0.221394250160603));
#888=CARTESIAN_POINT($,(28.0625,1,0.03323124452522));
#889=CARTESIAN_POINT($,(28.0625,1,0.23323124452522));
#890=CARTESIAN_POINT($,(27.375,1,0.047351636745937));
#891=CARTESIAN_POINT($,(27.375,1,0.247351636745936));
#892=CARTESIAN_POINT($,(26.6875,1,0.063598015601735));
#893=CARTESIAN_POINT($,(26.6875,1,0.263598015601735));
#894=CARTESIAN_POINT($,(26,1,0.0818131939618));
#895=CARTESIAN_POINT($,(26,1,0.2818131939618));
#896=B_SPLINE_SURFACE_WITH_KNOTS($,1,1,((#862,#863),(#864,#865),(#866,#867),(#868,#869),(#870,#871),(#872,#873),(#874,#875),(#876,#877),(#878,#879),(#880,#881),(#882,#883),(#884,#885),(#886,#887),(#888,#889),(#890,#891),(#892,#893),(#894,#895)),.RULED_SURFACE.,.F.,.F.,.F.,(2,1,1,1,1,1,1,1,1,1,1,1,1,1,1,1,2),(2,2),(0,0.0625,0.125,0.1875,0.25,0.3125,0.375,0.4375,0.5,0.5625,0.625,0.6875,0.75,0.8125,0.875,0.9375,1),(0,1),.UNSPECIFIED.);
#897=ORIENTED_EDGE($,$,$,#357,.T.);
#898=CARTESIAN_POINT($,(26,1,0.0818131939618));
#899=DIRECTION($,(0,0,1));
#900=VECTOR($,#899,1);
#901=LINE($,#898,#900);
#902=EDGE_CURVE($,#338,#673,#901,.T.);
#903=ORIENTED_EDGE($,$,$,#902,.T.);
#904=ORIENTED_EDGE($,$,$,#716,.F.);
#905=ORIENTED_EDGE($,$,$,#855,.F.);
#906=EDGE_LOOP($,(#897,#903,#904,#905));
#907=FACE_OUTER_BOUND('',#906,.T.);
#908=ADVANCED_FACE('',(#907),#896,.T.);
#909=CARTESIAN_POINT($,(26,1,0.0818131939618));
#910=CARTESIAN_POINT($,(26,1,0.2818131939618));
#911=CARTESIAN_POINT($,(26,0.875,0.0818131939618));
#912=CARTESIAN_POINT($,(26,0.875,0.2818131939618));
#913=CARTESIAN_POINT($,(26,0.75,0.0818131939618));
#914=CARTESIAN_POINT($,(26,0.75,0.2818131939618));
#915=CARTESIAN_POINT($,(26,0.625,0.0818131939618));
#916=CARTESIAN_POINT($,(26,0.625,0.2818131939618));
#917=CARTESIAN_POINT($,(26,0.5,0.0818131939618));
#918=CARTESIAN_POINT($,(26,0.5,0.2818131939618));
#919=CARTESIAN_POINT($,(26,0.375,0.0818131939618));
#920=CARTESIAN_POINT($,(26,0.375,0.2818131939618));
#921=CARTESIAN_POINT($,(26,0.25,0.0818131939618));
#922=CARTESIAN_POINT($,(26,0.25,0.2818131939618));
#923=CARTESIAN_POINT($,(26,0.125,0.0818131939618));
#924=CARTESIAN_POINT($,(26,0.125,0.2818131939618));
#925=CARTESIAN_POINT($,(26,0,0.0818131939618));
#926=CARTESIAN_POINT($,(26,0,0.2818131939618));
#927=CARTESIAN_POINT($,(26,-0.125,0.0818131939618));
#928=CARTESIAN_POINT($,(26,-0.125,0.2818131939618));
#929=CARTESIAN_POINT($,(26,-0.25,0.0818131939618));
#930=CARTESIAN_POINT($,(26,-0.25,0.2818131939618));
#931=CARTESIAN_POINT($,(26,-0.375,0.0818131939618));
#932=CARTESIAN_POINT($,(26,-0.375,0.2818131939618));
#933=CARTESIAN_POINT($,(26,-0.5,0.0818131939618));
#934=CARTESIAN_POINT($,(26,-0.5,0.2818131939618));
#935=CARTESIAN_POINT($,(26,-0.625,0.0818131939618));
#936=CARTESIAN_POINT($,(26,-0.625,0.2818131939618));
#937=CARTESIAN_POINT($,(26,-0.75,0.0818131939618));
#938=CARTESIAN_POINT($,(26,-0.75,0.2818131939618));
#939=CARTESIAN_POINT($,(26,-0.875,0.0818131939618));
#940=CARTESIAN_POINT($,(26,-0.875,0.2818131939618));
#941=CARTESIAN_POINT($,(26,-1,0.0818131939618));
#942=CARTESIAN_POINT($,(26,-1,0.2818131939618));
#943=B_SPLINE_SURFACE_WITH_KNOTS($,1,1,((#909,#910),(#911,#912),(#913,#914),(#915,#916),(#917,#918),(#919,#920),(#921,#922),(#923,#924),(#925,#926),(#927,#928),(#929,#930),(#931,#932),(#933,#934),(#935,#936),(#937,#938),(#939,#940),(#941,#942)),.RULED_SURFACE.,.F.,.F.,.F.,(2,1,1,1,1,1,1,1,1,1,1,1,1,1,1,1,2),(2,2),(0,0.0625,0.125,0.1875,0.25,0.3125,0.375,0.4375,0.5,0.5625,0.625,0.6875,0.75,0.8125,0.875,0.9375,1),(0,1),.UNSPECIFIED.);
#944=ORIENTED_EDGE($,$,$,#377,.T.);
#945=ORIENTED_EDGE($,$,$,#810,.T.);
#946=ORIENTED_EDGE($,$,$,#694,.F.);
#947=ORIENTED_EDGE($,$,$,#902,.F.);
#948=EDGE_LOOP($,(#944,#945,#946,#947));
#949=FACE_OUTER_BOUND('',#948,.T.);
#950=ADVANCED_FACE('',(#949),#943,.T.);
#951=CLOSED_SHELL($,(#381,#762,#814,#861,#908,#950));
#952=MANIFOLD_SOLID_BREP('AetherisBody',#951);
#953=APPLICATION_CONTEXT('mechanical design');
#954=PRODUCT_CONTEXT('',#953,'mechanical');
#955=PRODUCT('AETHERIS','AetherisBody','',(#954));
#956=PRODUCT_DEFINITION_FORMATION('','',#955);
#957=PRODUCT_DEFINITION_CONTEXT('design',#953,'design');
#958=PRODUCT_DEFINITION('','',#956,#957);
#959=PRODUCT_DEFINITION_SHAPE('','',#958);
#960=(LENGTH_UNIT()NAMED_UNIT(*)SI_UNIT(.MILLI.,.METRE.));
#961=(NAMED_UNIT(*)PLANE_ANGLE_UNIT()SI_UNIT($,.RADIAN.));
#962=(NAMED_UNIT(*)SI_UNIT($,.STERADIAN.)SOLID_ANGLE_UNIT());
#963=(GEOMETRIC_REPRESENTATION_CONTEXT(3)GLOBAL_UNIT_ASSIGNED_CONTEXT((#960,#961,#962))REPRESENTATION_CONTEXT('3','3D'));
#964=SHAPE_REPRESENTATION('AetherisBody',(#952),#963);
#965=SHAPE_DEFINITION_REPRESENTATION(#959,#964);
ENDSEC;
END-ISO-10303-21;
